<svg width="31" height="30" viewBox="0 0 31 30" fill="none" xmlns="http://www.w3.org/2000/svg">
<path d="M15.4384 3.43744C14.8566 3.43726 14.2891 3.61749 13.8141 3.9533C13.339 4.2891 12.9798 4.76396 12.7859 5.31244C12.7001 5.54297 12.5271 5.73055 12.3043 5.83473C12.0814 5.9389 11.8266 5.95133 11.5947 5.86933C11.3628 5.78732 11.1724 5.61746 11.0646 5.39636C10.9568 5.17527 10.9402 4.92066 11.0184 4.68744C11.3415 3.77326 11.9402 2.98177 12.7319 2.42195C13.5236 1.86213 14.4694 1.56152 15.439 1.56152C16.4086 1.56152 17.3544 1.86213 18.1461 2.42195C18.9378 2.98177 19.5364 3.77326 19.8596 4.68744C19.9425 4.92199 19.9288 5.17986 19.8215 5.40432C19.7143 5.62877 19.5223 5.80143 19.2877 5.88431C19.0532 5.96719 18.7953 5.95351 18.5709 5.84626C18.3464 5.73901 18.1737 5.54699 18.0909 5.31244C17.8969 4.76396 17.5377 4.2891 17.0627 3.9533C16.5876 3.61749 16.0201 3.43726 15.4384 3.43744ZM3.87585 7.49994C3.87585 7.2513 3.97463 7.01284 4.15044 6.83703C4.32626 6.66121 4.56471 6.56244 4.81335 6.56244H26.0634C26.312 6.56244 26.5505 6.66121 26.7263 6.83703C26.9021 7.01284 27.0009 7.2513 27.0009 7.49994C27.0009 7.74858 26.9021 7.98704 26.7263 8.16285C26.5505 8.33867 26.312 8.43744 26.0634 8.43744H4.81335C4.56471 8.43744 4.32626 8.33867 4.15044 8.16285C3.97463 7.98704 3.87585 7.74858 3.87585 7.49994ZM7.8321 10.5624C7.81553 10.3143 7.70106 10.0829 7.51387 9.91916C7.32669 9.75542 7.08212 9.67274 6.83398 9.68931C6.58584 9.70589 6.35444 9.82036 6.1907 10.0075C6.02696 10.1947 5.94428 10.4393 5.96085 10.6874L6.54085 19.3774C6.6471 20.9799 6.73335 22.2749 6.93585 23.2924C7.1471 24.3487 7.5046 25.2312 8.2446 25.9224C8.9846 26.6137 9.88835 26.9137 10.9571 27.0524C11.9846 27.1874 13.2821 27.1874 14.8896 27.1874H15.9884C17.5946 27.1874 18.8934 27.1874 19.9209 27.0524C20.9884 26.9137 21.8934 26.6149 22.6334 25.9224C23.3721 25.2312 23.7296 24.3474 23.9409 23.2924C24.1434 22.2749 24.2284 20.9799 24.3359 19.3774L24.9159 10.6874C24.9324 10.4393 24.8498 10.1947 24.686 10.0075C24.5223 9.82036 24.2909 9.70589 24.0427 9.68931C23.7946 9.67274 23.55 9.75542 23.3628 9.91916C23.1757 10.0829 23.0612 10.3143 23.0446 10.5624L22.4696 19.1874C22.3571 20.8712 22.2771 22.0437 22.1021 22.9249C21.9309 23.7812 21.6934 24.2337 21.3521 24.5537C21.0096 24.8737 20.5421 25.0812 19.6771 25.1937C18.7859 25.3099 17.6109 25.3124 15.9221 25.3124H14.9546C13.2671 25.3124 12.0921 25.3099 11.1996 25.1937C10.3346 25.0812 9.8671 24.8737 9.5246 24.5537C9.18335 24.2337 8.94585 23.7812 8.7746 22.9249C8.5996 22.0437 8.5196 20.8712 8.4071 19.1874L7.8321 10.5624Z" fill="#1F2937"/>
<path d="M12.2196 12.8172C12.4669 12.7924 12.714 12.8668 12.9064 13.0241C13.0988 13.1814 13.221 13.4086 13.2459 13.6559L13.8709 19.9059C13.8892 20.1498 13.8115 20.3911 13.6544 20.5785C13.4972 20.7659 13.2731 20.8844 13.0298 20.9089C12.7865 20.9334 12.5433 20.8618 12.352 20.7094C12.1607 20.5571 12.0365 20.336 12.0059 20.0934L11.3809 13.8434C11.3561 13.5961 11.4305 13.3491 11.5878 13.1567C11.7451 12.9642 11.9724 12.8421 12.2196 12.8172ZM19.4959 13.8434C19.5142 13.5996 19.4365 13.3582 19.2794 13.1708C19.1222 12.9835 18.8981 12.8649 18.6548 12.8404C18.4115 12.816 18.1683 12.8876 17.977 13.0399C17.7857 13.1923 17.6615 13.4133 17.6309 13.6559L17.0059 19.9059C16.9876 20.1498 17.0653 20.3911 17.2224 20.5785C17.3795 20.7659 17.6037 20.8844 17.847 20.9089C18.0903 20.9334 18.3335 20.8618 18.5248 20.7094C18.7161 20.5571 18.8403 20.336 18.8709 20.0934L19.4959 13.8434Z" fill="#1F2937"/>
</svg>
