<svg width="60" height="61" viewBox="0 0 60 61" fill="none" xmlns="http://www.w3.org/2000/svg">
<path d="M13.2544 47.6663C12.1153 47.6663 11.1405 47.2587 10.3301 46.4434C9.51961 45.6281 9.11369 44.6469 9.1123 43.4997V18.4997C9.1123 17.3538 9.51823 16.3733 10.3301 15.558C11.1419 14.7427 12.1167 14.3344 13.2544 14.333H23.972C24.5242 14.333 25.051 14.4372 25.5522 14.6455C26.0533 14.8538 26.4931 15.149 26.8714 15.5309L29.8226 18.4997H48.4619C49.0487 18.4997 49.5409 18.6997 49.9385 19.0997C50.3362 19.4997 50.5343 19.9941 50.5329 20.583C50.5316 21.1719 50.3327 21.667 49.9365 22.0684C49.5402 22.4698 49.0487 22.6691 48.4619 22.6663H28.114L23.972 18.4997H13.2544V43.4997L17.3447 29.8018C17.6208 28.899 18.1303 28.1788 18.8731 27.6413C19.6159 27.1038 20.4353 26.8344 21.3314 26.833H48.0477C49.4629 26.833 50.5764 27.3976 51.3883 28.5268C52.2001 29.6559 52.4155 30.8795 52.0344 32.1976L48.3066 44.6976C48.0304 45.6004 47.5217 46.3212 46.7802 46.8601C46.0388 47.399 45.2187 47.6677 44.3198 47.6663H13.2544ZM17.6035 43.4997H44.3198L48.0477 30.9997H21.3314L17.6035 43.4997Z" fill="#3B82F6"/>
</svg>
