<svg width="34" height="34" viewBox="0 0 34 34" fill="none" xmlns="http://www.w3.org/2000/svg">
<path fill-rule="evenodd" clip-rule="evenodd" d="M2.83301 7.08333C2.83301 6.33189 3.13152 5.61122 3.66287 5.07986C4.19422 4.54851 4.91489 4.25 5.66634 4.25H13.4863C13.911 4.25005 14.3302 4.34557 14.713 4.52948C15.0958 4.71339 15.4323 4.98099 15.6978 5.3125L17.6811 7.79167H28.333C29.0845 7.79167 29.8051 8.09018 30.3365 8.62153C30.8678 9.15288 31.1663 9.87355 31.1663 10.625V26.9167C31.1663 27.6681 30.8678 28.3888 30.3365 28.9201C29.8051 29.4515 29.0845 29.75 28.333 29.75H5.66634C4.91489 29.75 4.19422 29.4515 3.66287 28.9201C3.13152 28.3888 2.83301 27.6681 2.83301 26.9167V7.08333ZM13.4863 7.08333H5.66634V26.9167H28.333V10.625H17.6797C17.255 10.6249 16.8358 10.5294 16.453 10.3455C16.0702 10.1616 15.7337 9.89401 15.4683 9.5625L13.4863 7.08333Z" fill="#1F2937"/>
</svg>
