<svg width="26" height="28" viewBox="0 0 26 28" fill="none" xmlns="http://www.w3.org/2000/svg">
<path fill-rule="evenodd" clip-rule="evenodd" d="M13 2.4375C12.1775 2.4375 11.3688 2.7025 9.35 3.3925L8.635 3.6375C6.74375 4.285 5.365 4.7575 4.3975 5.15C4.02644 5.29358 3.6656 5.46231 3.3175 5.655C3.22729 5.70743 3.14046 5.76546 3.0575 5.82875C3.03269 5.8474 3.00968 5.86833 2.98875 5.89125C2.97234 5.92066 2.95893 5.95165 2.94875 5.98375C2.92375 6.05208 2.8975 6.15542 2.87 6.29375C2.80089 6.68957 2.75912 7.08969 2.745 7.49125C2.6875 8.5425 2.6875 10.01 2.6875 12.0212V13.9888C2.6875 20.4588 7.525 23.6425 10.7488 25.05C11.2125 25.2525 11.4813 25.3675 11.78 25.4438C12.065 25.5175 12.4125 25.5625 13 25.5625C13.5875 25.5625 13.935 25.5175 14.22 25.4438C14.52 25.3688 14.7875 25.2525 15.2512 25.05C18.4762 23.6425 23.3125 20.4575 23.3125 13.9888V12.0212C23.3125 10.01 23.3125 8.5425 23.255 7.49125C23.2409 7.08969 23.1991 6.68957 23.13 6.29375C23.1104 6.18884 23.0841 6.0853 23.0513 5.98375C23.0411 5.95165 23.0277 5.92066 23.0113 5.89125C22.9903 5.86833 22.9673 5.8474 22.9425 5.82875C22.8596 5.76504 22.7727 5.70659 22.6825 5.65375C22.3343 5.46191 21.9735 5.29402 21.6025 5.15125C20.635 4.7575 19.2562 4.285 17.365 3.63875L16.6487 3.3925C14.6312 2.7025 13.8225 2.4375 13 2.4375ZM8.90375 1.56375C10.7087 0.94625 11.8288 0.5625 13 0.5625C14.1712 0.5625 15.2913 0.94625 17.0963 1.56375L17.2563 1.61875L18.005 1.875C19.8562 2.50875 21.2863 2.99875 22.3088 3.41375C22.8238 3.6225 23.2675 3.82625 23.6238 4.0325C23.9675 4.2325 24.3113 4.48125 24.545 4.815C24.7763 5.14375 24.8962 5.54875 24.9712 5.94C25.05 6.345 25.0962 6.83125 25.1275 7.39C25.1875 8.4975 25.1875 10.0175 25.1875 11.9875V13.9888C25.1875 21.615 19.4275 25.2712 16.0025 26.7687L15.9688 26.7825C15.5437 26.9687 15.1437 27.1425 14.685 27.26C14.2012 27.385 13.6863 27.4375 13 27.4375C12.3125 27.4375 11.8 27.385 11.315 27.26C10.8563 27.1425 10.4563 26.9687 10.0312 26.7825L9.9975 26.7687C6.5725 25.2712 0.8125 21.615 0.8125 13.9875V11.9875C0.8125 10.0175 0.8125 8.4975 0.8725 7.38875C0.90375 6.83125 0.95 6.345 1.02875 5.93875C1.10375 5.54875 1.22375 5.14375 1.45375 4.81375C1.68875 4.48125 2.0325 4.2325 2.37625 4.0325C2.7325 3.82625 3.17625 3.6225 3.69125 3.41375C4.71375 2.99875 6.14375 2.50875 7.995 1.87625L8.74375 1.61875L8.90375 1.56375Z" fill="#747474"/>
</svg>
