<svg width="844" height="485" viewBox="0 0 844 485" fill="none" xmlns="http://www.w3.org/2000/svg">
<path fill-rule="evenodd" clip-rule="evenodd" d="M628 88.9998C685.502 88.6674 742.836 89.0008 800 89.9998C782.367 109.634 764.367 128.968 746 148C703.332 147.833 660.665 148 618 148.5C616.763 148.732 615.763 149.232 615 150C611.863 151.213 608.863 152.713 606 154.5C553.933 227.799 500.766 300.299 446.5 372C445.03 373.652 443.197 374.652 441 375C437.757 373.265 434.923 370.932 432.5 368C382.698 302.395 334.365 235.728 287.5 168C283.333 161.167 277.833 155.667 271 151.5C268.399 150.58 265.732 149.913 263 149.5C220.333 149.167 177.667 148.833 135 148.5C116.202 129.214 97.8691 109.548 80 89.4998C146 88.8331 212 88.8331 278 89.4998C294.18 90.5944 308.18 96.5944 320 107.5C326.087 113.196 331.587 119.363 336.5 126C370.854 176.054 405.687 225.721 441 275C476.44 226.716 510.94 177.716 544.5 128C564.032 97.6551 591.865 84.6551 628 88.9998Z" fill="white"/>
<path fill-rule="evenodd" clip-rule="evenodd" d="M308 253C307.472 254.347 307.305 255.681 307.5 257C307.833 256.667 308.167 256.333 308.5 256C311.167 259.333 313.833 262.667 316.5 266C317.117 266.949 316.951 267.782 316 268.5C318.383 271.872 320.55 275.372 322.5 279C324.058 279.845 325.058 279.179 325.5 277C327.392 278.117 328.225 279.784 328 282C324.782 282.151 324.449 282.984 327 284.5C324.72 284.712 322.72 285.545 321 287C319.286 285.891 318.619 286.558 319 289C320.984 289.117 322.65 288.45 324 287C324.787 287.742 325.453 288.575 326 289.5C324.048 291.574 322.215 293.741 320.5 296C320.006 294.366 319.84 292.699 320 291C318.11 291.203 316.61 290.537 315.5 289C315.39 291.348 314.223 292.848 312 293.5C314.528 294.014 316.695 295.18 318.5 297C318.663 298.887 317.829 300.387 316 301.5C314.865 302.249 313.865 302.083 313 301C314.403 297.899 313.403 296.733 310 297.5C310.556 299.737 311.556 301.737 313 303.5C310.609 304.191 310.609 305.191 313 306.5C308.183 306.571 307.35 308.071 310.5 311C312.496 310.504 314.163 309.504 315.5 308C316.704 309.359 318.204 310.359 320 311C318.104 311.966 316.104 312.299 314 312C314.219 313.175 313.886 314.175 313 315C311.65 313.55 309.984 312.883 308 313C308.236 315.473 309.569 317.14 312 318C310.237 317.806 308.403 317.806 306.5 318C306.191 316.734 305.691 315.567 305 314.5C305.837 313.489 306.17 312.322 306 311C303.486 311.254 301.152 312.087 299 313.5C302.779 314.61 302.946 316.11 299.5 318C298.718 315.312 297.218 314.312 295 315C296.975 316.249 297.309 317.749 296 319.5C297.124 319.749 298.124 320.249 299 321C297.784 321.596 296.451 321.763 295 321.5C294.57 322.42 294.236 323.253 294 324C293.36 319.438 292.194 319.104 290.5 323C285.657 317.422 280.99 311.756 276.5 306C274.614 303.258 272.114 301.591 269 301C236.532 264.36 204.199 227.527 172 190.5C199 189.833 226 189.833 253 190.5C257.133 193.631 260.966 197.131 264.5 201C279.211 218.206 293.711 235.54 308 253Z" fill="white"/>
<path fill-rule="evenodd" clip-rule="evenodd" d="M269 301C272.114 301.591 274.614 303.258 276.5 306C280.99 311.756 285.657 317.422 290.5 323C292.194 319.104 293.36 319.438 294 324C294.236 323.253 294.57 322.42 295 321.5C296.451 321.763 297.784 321.596 299 321C298.124 320.249 297.124 319.749 296 319.5C297.309 317.749 296.975 316.249 295 315C297.218 314.312 298.718 315.312 299.5 318C302.946 316.11 302.779 314.61 299 313.5C301.152 312.087 303.486 311.254 306 311C306.17 312.322 305.837 313.489 305 314.5C305.691 315.567 306.191 316.734 306.5 318C308.403 317.806 310.237 317.806 312 318C309.569 317.14 308.236 315.473 308 313C309.984 312.883 311.65 313.55 313 315C313.886 314.175 314.219 313.175 314 312C316.104 312.299 318.104 311.966 320 311C318.204 310.359 316.704 309.359 315.5 308C314.163 309.504 312.496 310.504 310.5 311C307.35 308.071 308.183 306.571 313 306.5C310.609 305.191 310.609 304.191 313 303.5C311.556 301.737 310.556 299.737 310 297.5C313.403 296.733 314.403 297.899 313 301C313.865 302.083 314.865 302.249 316 301.5C317.829 300.387 318.663 298.887 318.5 297C316.695 295.18 314.528 294.014 312 293.5C314.223 292.848 315.39 291.348 315.5 289C316.61 290.537 318.11 291.203 320 291C319.84 292.699 320.006 294.366 320.5 296C322.215 293.741 324.048 291.574 326 289.5C325.453 288.575 324.787 287.742 324 287C322.65 288.45 320.984 289.117 319 289C318.619 286.558 319.286 285.891 321 287C322.72 285.545 324.72 284.712 327 284.5C324.449 282.984 324.782 282.151 328 282C328.225 279.784 327.392 278.117 325.5 277C325.058 279.179 324.058 279.845 322.5 279C320.55 275.372 318.383 271.872 316 268.5C316.951 267.782 317.117 266.949 316.5 266C313.833 262.667 311.167 259.333 308.5 256C308.167 256.333 307.833 256.667 307.5 257C307.305 255.681 307.472 254.347 308 253C349.768 301.19 390.601 350.19 430.5 400C438.648 406.945 446.314 406.278 453.5 398C509.787 327.963 567.621 259.13 627 191.5C654.913 189.851 682.913 189.517 711 190.5C641.167 269.667 571.333 348.833 501.5 428C488.525 443.238 472.025 451.738 452 453.5C421.721 457.409 396.554 447.909 376.5 425C341.204 383.204 305.371 341.871 269 301Z" fill="white"/>
</svg>
