<svg width="844" height="485" viewBox="0 0 844 485" fill="none" xmlns="http://www.w3.org/2000/svg">
<path fill-rule="evenodd" clip-rule="evenodd" d="M628 88.9998C685.502 88.6674 742.836 89.0008 800 89.9998C782.367 109.634 764.367 128.968 746 148C703.332 147.833 660.665 148 618 148.5C616.763 148.732 615.763 149.232 615 150C611.863 151.213 608.863 152.713 606 154.5C553.933 227.799 500.766 300.299 446.5 372C445.03 373.652 443.197 374.652 441 375C437.757 373.265 434.923 370.932 432.5 368C382.698 302.395 334.365 235.728 287.5 168C283.333 161.167 277.833 155.667 271 151.5C268.399 150.58 265.732 149.913 263 149.5C220.333 149.167 177.667 148.833 135 148.5C116.202 129.214 97.8691 109.548 80 89.4998C146 88.8331 212 88.8331 278 89.4998C294.18 90.5944 308.18 96.5944 320 107.5C326.087 113.196 331.587 119.363 336.5 126C370.854 176.054 405.687 225.721 441 275C476.44 226.716 510.94 177.716 544.5 128C564.032 97.6551 591.865 84.6551 628 88.9998Z" fill="white"/>
<path d="M308 253C349.768 301.19 390.601 350.19 430.5 400C438.648 406.945 446.314 406.278 453.5 398C509.787 327.963 567.621 259.13 627 191.5C654.913 189.851 682.913 189.517 711 190.5C641.167 269.667 571.333 348.833 501.5 428C488.525 443.238 472.025 451.738 452 453.5C421.721 457.409 396.554 447.909 376.5 425C341.204 383.204 305.371 341.871 269 301L172 190.5C172 190.5 252 190 253 190.5C254 191 260 196 263.5 200C277.535 216.041 286.08 226.75 297.764 240.809L308 253Z" fill="white"/>
</svg>
