<svg width="111" height="32" viewBox="0 0 111 32" fill="none" xmlns="http://www.w3.org/2000/svg">
<path d="M105.637 21.5898L88.1953 29.9688V26.2773L100.969 20.5938V20.4766L88.1953 14.1484V10.4375L105.637 19.5195V21.5898Z" fill="#FFA02B"/>
<path d="M17.749 27H13.7695L6.55518 16.0015C6.132 15.3586 5.83903 14.8743 5.67627 14.5488H5.62744C5.69255 15.1673 5.7251 16.1113 5.7251 17.3809V27H2.00195V9.49512H6.25L13.1958 20.1519C13.5132 20.632 13.8062 21.1081 14.0747 21.5801H14.1235C14.0584 21.1732 14.0259 20.3716 14.0259 19.1753V9.49512H17.749V27ZM35.855 21.8486H27.7007C27.8309 23.6634 28.9743 24.5708 31.1309 24.5708C32.5062 24.5708 33.7147 24.2453 34.7563 23.5942V26.3774C33.6007 26.9959 32.0993 27.3052 30.252 27.3052C28.2337 27.3052 26.6672 26.7477 25.5522 25.6328C24.4373 24.5098 23.8799 22.9473 23.8799 20.9453C23.8799 18.8701 24.4821 17.2262 25.6865 16.0137C26.891 14.8011 28.3721 14.1948 30.1299 14.1948C31.9528 14.1948 33.3607 14.736 34.3535 15.8184C35.3545 16.9007 35.855 18.3696 35.855 20.2251V21.8486ZM32.2783 19.4805C32.2783 17.6901 31.554 16.7949 30.1055 16.7949C29.487 16.7949 28.9499 17.0513 28.4941 17.564C28.0465 18.0767 27.7739 18.7155 27.6763 19.4805H32.2783ZM53.4727 14.5L49.3467 20.5547L53.4482 27H49.0049L47.1982 23.6309C47.0518 23.3623 46.8768 22.9839 46.6733 22.4956H46.6245C46.5024 22.8374 46.3356 23.2036 46.124 23.5942L44.3052 27H39.874L44.0977 20.7744L40.1304 14.5H44.5981L46.3804 18.0034C46.6164 18.4673 46.7832 18.8579 46.8809 19.1753H46.9297C47.0599 18.7928 47.2349 18.394 47.4546 17.979L49.2734 14.5H53.4727ZM66.0244 26.8535C65.4548 27.1546 64.5962 27.3052 63.4487 27.3052C60.7306 27.3052 59.3716 25.8932 59.3716 23.0693V17.3442H57.3452V14.5H59.3716V11.8022L63.2168 10.7036V14.5H66.0244V17.3442H63.2168V22.3979C63.2168 23.7 63.7336 24.3511 64.7671 24.3511C65.174 24.3511 65.5931 24.2331 66.0244 23.9971V26.8535Z" fill="#FFA02B"/>
</svg>
