<svg width="31" height="30" viewBox="0 0 31 30" fill="none" xmlns="http://www.w3.org/2000/svg">
<g clip-path="url(#clip0_864_111)">
<path d="M23.4884 1.07129H8.48839C6.78342 1.07129 5.14829 1.74858 3.9427 2.95417C2.73711 4.15976 2.05981 5.7949 2.05981 7.49986V22.4999C2.05981 24.2048 2.73711 25.84 3.9427 27.0455C5.14829 28.2511 6.78342 28.9284 8.48839 28.9284H23.4884C25.1933 28.9284 26.8285 28.2511 28.0341 27.0455C29.2397 25.84 29.917 24.2048 29.917 22.4999V7.49986C29.917 5.7949 29.2397 4.15976 28.0341 2.95417C26.8285 1.74858 25.1933 1.07129 23.4884 1.07129Z" stroke="#1F2937" stroke-width="2.14286" stroke-linecap="round" stroke-linejoin="round"/>
<path d="M12.1505 22.5297V16.2554M12.1505 16.2554V7.46973H18.9755C19.828 7.46973 20.6456 7.80837 21.2484 8.41117C21.8512 9.01396 22.1898 9.83153 22.1898 10.684V13.0412C22.1898 13.8936 21.8512 14.7112 21.2484 15.314C20.6456 15.9168 19.828 16.2554 18.9755 16.2554H12.1505Z" stroke="#1F2937" stroke-width="2.14286" stroke-linecap="round" stroke-linejoin="round"/>
</g>
<defs>
<clipPath id="clip0_864_111">
<rect width="30" height="30" fill="white" transform="translate(0.988403)"/>
</clipPath>
</defs>
</svg>
