<svg width="105" height="104" viewBox="0 0 105 104" fill="none" xmlns="http://www.w3.org/2000/svg">
<path d="M81.2502 33.0052C81.2502 35.5469 80.2405 37.9844 78.4433 39.7816C76.646 41.5789 74.2085 42.5885 71.6668 42.5885C69.1252 42.5885 66.6876 41.5789 64.8904 39.7816C63.0932 37.9844 62.0835 35.5469 62.0835 33.0052C62.0835 30.4636 63.0932 28.026 64.8904 26.2288C66.6876 24.4315 69.1252 23.4219 71.6668 23.4219C74.2085 23.4219 76.646 24.4315 78.4433 26.2288C80.2405 28.026 81.2502 30.4636 81.2502 33.0052Z" fill="#D6D6D6"/>
<path fill-rule="evenodd" clip-rule="evenodd" d="M52.227 0.661042H52.7733C63.8372 0.661042 72.5054 0.661042 79.2712 1.57146C86.1904 2.50104 91.6529 4.44646 95.9414 8.73021C100.23 13.0188 102.171 18.4812 103.1 25.4052C104.011 32.1662 104.011 40.8344 104.011 51.8983V52.32C104.011 61.4673 104.011 68.9519 103.512 75.0469C103.014 81.1802 101.993 86.2929 99.7029 90.5479C98.6998 92.4199 97.446 94.1081 95.9414 95.6127C91.6529 99.9012 86.1904 101.842 79.2664 102.771C72.5054 103.682 63.8372 103.682 52.7733 103.682H52.227C41.1631 103.682 32.495 103.682 25.7291 102.771C18.81 101.842 13.3475 99.8965 9.05891 95.6127C5.25912 91.8129 3.29454 87.0835 2.25475 81.209C1.22454 75.4446 1.03766 68.2715 0.999329 59.3685C0.99294 57.1005 0.989746 54.7015 0.989746 52.1715V51.8935C0.989746 40.8296 0.989746 32.1615 1.90016 25.3956C2.82975 18.4765 4.77516 13.014 9.05891 8.72542C13.3475 4.43688 18.81 2.49625 25.7339 1.56667C32.495 0.65625 41.1631 0.65625 52.227 0.65625M26.6875 8.68708C20.5637 9.51125 16.8693 11.0829 14.1429 13.8094C11.4116 16.5406 9.84475 20.2302 9.02058 26.3587C8.18683 32.5879 8.17725 40.7721 8.17725 52.1667V56.2108L12.9737 52.0133C15.0776 50.1717 17.8028 49.1985 20.5974 49.291C23.392 49.3836 26.0469 50.5349 28.0243 52.5117L48.5806 73.0679C50.1758 74.6628 52.2824 75.6438 54.5297 75.8384C56.777 76.033 59.0209 75.4286 60.8664 74.1317L62.2943 73.1254C64.957 71.2544 68.1757 70.3423 71.4241 70.5381C74.6724 70.734 77.7582 72.0262 80.1768 74.2035L93.7373 86.4079C95.1077 83.5425 95.9175 79.7763 96.3487 74.4623C96.8183 68.6883 96.8231 61.4912 96.8231 52.1667C96.8231 40.7721 96.8135 32.5879 95.9798 26.3587C95.1556 20.2302 93.5839 16.5358 90.8575 13.8046C88.1262 11.0781 84.4366 9.51125 78.3081 8.68708C72.0789 7.85333 63.8947 7.84375 52.5002 7.84375C41.1056 7.84375 32.9166 7.85333 26.6875 8.68708Z" fill="#D6D6D6"/>
</svg>
