<svg width="48" height="48" viewBox="0 0 48 48" fill="none" xmlns="http://www.w3.org/2000/svg">
<path d="M26.8659 7.5L44.1339 37.408C44.3972 37.8641 44.5358 38.3814 44.5359 38.908C44.5359 39.4346 44.3972 39.9519 44.1339 40.408C43.8706 40.864 43.4919 41.2427 43.0359 41.506C42.5799 41.7694 42.0625 41.908 41.5359 41.908H6.99992C6.47332 41.908 5.956 41.7694 5.49995 41.506C5.0439 41.2427 4.6652 40.864 4.4019 40.408C4.13861 39.9519 4 39.4346 4 38.908C4 38.3814 4.13862 37.8641 4.40192 37.408L21.6699 7.5C22.8239 5.5 25.7099 5.5 26.8659 7.5ZM24.2679 31.204C23.7375 31.204 23.2288 31.4147 22.8537 31.7898C22.4786 32.1649 22.2679 32.6736 22.2679 33.204C22.2679 33.7344 22.4786 34.2431 22.8537 34.6182C23.2288 34.9933 23.7375 35.204 24.2679 35.204C24.7984 35.204 25.3071 34.9933 25.6821 34.6182C26.0572 34.2431 26.2679 33.7344 26.2679 33.204C26.2679 32.6736 26.0572 32.1649 25.6821 31.7898C25.3071 31.4147 24.7984 31.204 24.2679 31.204ZM24.2679 17.204C23.7781 17.2041 23.3052 17.3839 22.9392 17.7094C22.5731 18.0349 22.3392 18.4835 22.2819 18.97L22.2679 19.204V27.204C22.2685 27.7138 22.4637 28.2041 22.8136 28.5747C23.1636 28.9454 23.6418 29.1685 24.1507 29.1983C24.6596 29.2282 25.1607 29.0627 25.5516 28.7355C25.9425 28.4083 26.1937 27.9442 26.2539 27.438L26.2679 27.204V19.204C26.2679 18.6736 26.0572 18.1649 25.6821 17.7898C25.3071 17.4147 24.7984 17.204 24.2679 17.204Z" fill="#EAB308"/>
</svg>
