<svg width="480" height="423" viewBox="0 0 480 423" fill="none" xmlns="http://www.w3.org/2000/svg">
<path fill-rule="evenodd" clip-rule="evenodd" d="M1.01821 400.116C0.95541 395.413 1.28871 390.746 2.01821 386.116C72.8812 262.072 144.047 138.072 215.518 14.1162C227.095 -1.23075 241.261 -4.06376 258.018 5.61625C260.558 7.82125 262.725 10.3212 264.518 13.1162C336.682 137.585 408.348 262.252 479.518 387.116C481.514 403.97 474.68 415.47 459.018 421.616C313.018 422.283 167.018 422.283 21.0182 421.616C10.3042 418.073 3.63711 410.906 1.01821 400.116Z" fill="#FEE905"/>
<path fill-rule="evenodd" clip-rule="evenodd" d="M238.791 93.4811C239.234 92.2289 240.358 90.9636 241.018 92.1161V92.1161C292.135 180.57 343.278 269.087 394.447 357.665C395.596 359.654 394.175 362.143 391.878 362.165C290.97 363.111 190.06 363.433 89.1489 363.132C86.8541 363.125 85.4169 360.649 86.5491 358.653C136.622 270.378 187.279 182.199 238.518 94.1161C238.625 93.907 238.716 93.6953 238.791 93.4811Z" fill="white"/>
<path fill-rule="evenodd" clip-rule="evenodd" d="M251.018 255.116C249.561 260.214 248.894 265.547 249.018 271.116C248.905 276.134 248.571 281.134 248.018 286.116C241.351 286.116 234.685 286.116 228.018 286.116C225.903 259.662 224.237 233.162 223.018 206.616C222.581 193.385 228.914 187.385 242.018 188.616C247.677 189.612 251.511 192.778 253.518 198.116C254.185 206.116 254.185 214.116 253.518 222.116C252.047 233.069 251.214 244.069 251.018 255.116Z" fill="#FEE911"/>
<path fill-rule="evenodd" clip-rule="evenodd" d="M251.018 255.116C250.949 260.47 250.616 265.803 250.018 271.116C249.685 271.116 249.351 271.116 249.018 271.116C248.894 265.547 249.561 260.214 251.018 255.116Z" fill="#F3EA87"/>
<path fill-rule="evenodd" clip-rule="evenodd" d="M249.018 271.116C249.351 271.116 249.685 271.116 250.018 271.116C250.422 276.399 249.756 281.399 248.018 286.116C248.571 281.134 248.905 276.134 249.018 271.116Z" fill="#F0EAB9"/>
<path fill-rule="evenodd" clip-rule="evenodd" d="M221.018 316.116C221.023 312.082 221.356 308.082 222.018 304.116C228.894 293.665 237.894 291.498 249.018 297.616C258.644 307.375 258.31 316.708 248.018 325.616C235.688 331.437 226.688 328.27 221.018 316.116Z" fill="#FEE911"/>
<path fill-rule="evenodd" clip-rule="evenodd" d="M222.018 304.116C221.356 308.082 221.023 312.082 221.018 316.116C220.36 314.823 220.026 313.323 220.018 311.616C219.926 308.795 220.592 306.295 222.018 304.116Z" fill="#F3EA8C"/>
<path fill-rule="evenodd" clip-rule="evenodd" d="M2.01815 386.116C1.28865 390.746 0.955351 395.413 1.01815 400.116C0.357051 398.482 0.0237512 396.649 0.0181512 394.616C-0.121549 391.466 0.545151 388.633 2.01815 386.116Z" fill="#F0EAA8"/>
</svg>
