<svg width="17" height="18" viewBox="0 0 17 18" fill="none" xmlns="http://www.w3.org/2000/svg">
<path d="M1.66667 17.75C1.20833 17.75 0.816111 17.5869 0.49 17.2608C0.163889 16.9347 0.000555556 16.5422 0 16.0833V3.58333C0 3.125 0.163333 2.73278 0.49 2.40667C0.816667 2.08056 1.20889 1.91722 1.66667 1.91667H2.5V1.08333C2.5 0.847222 2.58 0.649444 2.74 0.49C2.9 0.330556 3.09778 0.250556 3.33333 0.25H6.66667C6.90278 0.25 7.10083 0.33 7.26083 0.49C7.42083 0.65 7.50056 0.847778 7.5 1.08333V1.91667H8.33333C8.79167 1.91667 9.18417 2.08 9.51083 2.40667C9.8375 2.73333 10.0006 3.12556 10 3.58333H15C15.4583 3.58333 15.8508 3.74667 16.1775 4.07333C16.5042 4.4 16.6672 4.79222 16.6667 5.25V14.4167C16.6667 14.875 16.5036 15.2675 16.1775 15.5942C15.8514 15.9208 15.4589 16.0839 15 16.0833H10C10 16.5417 9.83694 16.9342 9.51083 17.2608C9.18472 17.5875 8.79222 17.7506 8.33333 17.75H1.66667ZM6.66667 7.75C6.90278 7.75 7.10083 7.67 7.26083 7.51C7.42083 7.35 7.50056 7.15222 7.5 6.91667C7.49944 6.68111 7.41944 6.48333 7.26 6.32333C7.10056 6.16333 6.90278 6.08333 6.66667 6.08333C6.43056 6.08333 6.23278 6.16333 6.07333 6.32333C5.91389 6.48333 5.83389 6.68111 5.83333 6.91667C5.83278 7.15222 5.91278 7.35028 6.07333 7.51083C6.23389 7.67139 6.43167 7.75111 6.66667 7.75ZM10 7.75C10.2361 7.75 10.4342 7.67 10.5942 7.51C10.7542 7.35 10.8339 7.15222 10.8333 6.91667C10.8328 6.68111 10.7528 6.48333 10.5933 6.32333C10.4339 6.16333 10.2361 6.08333 10 6.08333C9.76389 6.08333 9.56611 6.16333 9.40667 6.32333C9.24722 6.48333 9.16722 6.68111 9.16667 6.91667C9.16611 7.15222 9.24611 7.35028 9.40667 7.51083C9.56722 7.67139 9.765 7.75111 10 7.75ZM13.3333 7.75C13.5694 7.75 13.7675 7.67 13.9275 7.51C14.0875 7.35 14.1672 7.15222 14.1667 6.91667C14.1661 6.68111 14.0861 6.48333 13.9267 6.32333C13.7672 6.16333 13.5694 6.08333 13.3333 6.08333C13.0972 6.08333 12.8994 6.16333 12.74 6.32333C12.5806 6.48333 12.5006 6.68111 12.5 6.91667C12.4994 7.15222 12.5794 7.35028 12.74 7.51083C12.9006 7.67139 13.0983 7.75111 13.3333 7.75ZM6.66667 13.5833C6.90278 13.5833 7.10083 13.5033 7.26083 13.3433C7.42083 13.1833 7.50056 12.9856 7.5 12.75C7.49944 12.5144 7.41944 12.3167 7.26 12.1567C7.10056 11.9967 6.90278 11.9167 6.66667 11.9167C6.43056 11.9167 6.23278 11.9967 6.07333 12.1567C5.91389 12.3167 5.83389 12.5144 5.83333 12.75C5.83278 12.9856 5.91278 13.1836 6.07333 13.3442C6.23389 13.5047 6.43167 13.5844 6.66667 13.5833ZM10 13.5833C10.2361 13.5833 10.4342 13.5033 10.5942 13.3433C10.7542 13.1833 10.8339 12.9856 10.8333 12.75C10.8328 12.5144 10.7528 12.3167 10.5933 12.1567C10.4339 11.9967 10.2361 11.9167 10 11.9167C9.76389 11.9167 9.56611 11.9967 9.40667 12.1567C9.24722 12.3167 9.16722 12.5144 9.16667 12.75C9.16611 12.9856 9.24611 13.1836 9.40667 13.3442C9.56722 13.5047 9.765 13.5844 10 13.5833ZM13.3333 13.5833C13.5694 13.5833 13.7675 13.5033 13.9275 13.3433C14.0875 13.1833 14.1672 12.9856 14.1667 12.75C14.1661 12.5144 14.0861 12.3167 13.9267 12.1567C13.7672 11.9967 13.5694 11.9167 13.3333 11.9167C13.0972 11.9167 12.8994 11.9967 12.74 12.1567C12.5806 12.3167 12.5006 12.5144 12.5 12.75C12.4994 12.9856 12.5794 13.1836 12.74 13.3442C12.9006 13.5047 13.0983 13.5844 13.3333 13.5833Z" fill="white"/>
</svg>
