<svg width="651" height="571" viewBox="0 0 651 571" fill="none" xmlns="http://www.w3.org/2000/svg">
<path fill-rule="evenodd" clip-rule="evenodd" d="M313.528 0.174585C338.329 -1.33941 359.162 6.99359 376.028 25.1746C463.433 172.984 551.1 320.65 639.028 468.175C656.994 499.99 653.494 529.156 628.528 555.675C618.133 563.367 606.467 568.034 593.528 569.675C416.528 570.342 239.528 570.342 62.5281 569.675C19.9591 564.776 -0.87449 540.942 0.0281105 498.175C3.07151 485.083 8.07151 472.749 15.0281 461.175C101.699 317.177 187.365 172.511 272.028 27.1746C282.921 13.4886 296.755 4.48859 313.528 0.174585Z" fill="#2C87F6"/>
<path fill-rule="evenodd" clip-rule="evenodd" d="M328.528 379.175C324.83 379.123 321.163 378.789 317.528 378.175C312.65 376.136 308.816 372.802 306.028 368.175C303.593 363.439 301.927 358.439 301.028 353.175C297.725 290.852 295.059 228.519 293.028 166.175C297.781 146.387 310.281 137.22 330.528 138.675C348.006 143.164 357.006 154.497 357.528 172.675C354.112 235.495 350.945 298.328 348.028 361.175C345.219 371.15 338.719 377.15 328.528 379.175Z" fill="#FDFEFE"/>
<path fill-rule="evenodd" clip-rule="evenodd" d="M321.528 417.175C342.586 417.076 356.086 427.076 362.028 447.175C364.719 470.64 354.553 484.806 331.528 489.675C309.236 492.02 295.07 482.52 289.028 461.175C287.315 442.768 294.482 428.934 310.528 419.675C314.34 418.88 318.007 418.046 321.528 417.175Z" fill="#FDFDFE"/>
</svg>
