<svg width="748" height="722" viewBox="0 0 748 722" fill="none" xmlns="http://www.w3.org/2000/svg">
<path fill-rule="evenodd" clip-rule="evenodd" d="M744.905 80.9102C744.965 80.3672 745.298 80.0342 745.905 79.9102C746.902 86.8782 747.235 93.8782 746.905 100.91C746.572 100.91 746.238 100.91 745.905 100.91C746.229 94.0562 745.896 87.3892 744.905 80.9102Z" fill="#3B82F6"/>
<path fill-rule="evenodd" clip-rule="evenodd" d="M113.905 97.9102C114.572 96.5772 115.572 95.5772 116.905 94.9102C118.522 94.3722 120.189 94.0392 121.905 93.9102C123.252 100.109 120.918 102.609 114.905 101.41C114.068 100.399 113.735 99.2322 113.905 97.9102Z" fill="#3B82F6"/>
<path fill-rule="evenodd" clip-rule="evenodd" d="M129.905 83.9102C131.238 83.9102 132.572 83.9102 133.905 83.9102C134.35 86.7752 133.683 89.2752 131.905 91.4102C128.427 92.0042 126.427 90.5042 125.905 86.9102C126.841 85.4362 128.175 84.4362 129.905 83.9102Z" fill="#3B82F6"/>
<path fill-rule="evenodd" clip-rule="evenodd" d="M141.905 73.9102C142.51 75.4362 143.676 76.4362 145.405 76.9102C148.281 82.5002 146.781 84.8332 140.905 83.9102C143.161 82.9892 144.161 81.3222 143.905 78.9102C141.176 79.9402 138.509 79.9402 135.905 78.9102C137.865 77.2542 139.865 75.5872 141.905 73.9102Z" fill="#3B82F6"/>
<path fill-rule="evenodd" clip-rule="evenodd" d="M147.905 69.9102C149.518 72.5422 151.185 75.2082 152.905 77.9102C152.518 79.1302 151.685 79.7972 150.405 79.9102C148.743 78.4132 147.243 76.7472 145.905 74.9102C144.669 74.1642 143.335 73.8312 141.905 73.9102C143.552 72.0842 145.552 70.7502 147.905 69.9102Z" fill="#3B82F6"/>
<path fill-rule="evenodd" clip-rule="evenodd" d="M153.905 64.9102C153.905 66.2432 153.905 67.5772 153.905 68.9102C156.478 68.5582 158.811 69.0582 160.905 70.4102C156.632 73.9472 153.299 73.1132 150.905 67.9102C151.572 66.5772 152.572 65.5772 153.905 64.9102Z" fill="#3B82F6"/>
<path fill-rule="evenodd" clip-rule="evenodd" d="M175.905 50.9102C175.762 52.6722 176.096 54.3392 176.905 55.9102C175.076 56.6922 173.576 56.0262 172.405 53.9102C172.473 59.7792 169.973 64.1122 164.905 66.9102C167.161 67.8312 168.161 69.4982 167.905 71.9102C166.853 72.0592 165.853 71.8932 164.905 71.4102C162.738 68.5772 160.238 66.0772 157.405 63.9102C156.734 64.6622 155.901 64.9962 154.905 64.9102C161.352 59.5122 168.352 54.8462 175.905 50.9102Z" fill="#3B82F6"/>
<path fill-rule="evenodd" clip-rule="evenodd" d="M543.905 48.9102C545.796 49.9462 547.629 49.9462 549.405 48.9102C549.771 50.8622 550.604 52.5282 551.905 53.9102C548.894 52.7412 546.227 51.0742 543.905 48.9102Z" fill="#BABABC"/>
<path fill-rule="evenodd" clip-rule="evenodd" d="M185.905 44.9102C186.496 45.5612 187.162 46.2282 187.905 46.9102C187.696 47.4962 187.362 47.9962 186.905 48.4102C184.917 48.5902 182.917 48.4242 180.905 47.9102C182.37 46.6732 184.037 45.6732 185.905 44.9102Z" fill="#3B82F6"/>
<path fill-rule="evenodd" clip-rule="evenodd" d="M195.905 39.9102C194.332 43.8692 191.332 45.5352 186.905 44.9102C189.413 42.4862 192.413 40.8202 195.905 39.9102Z" fill="#3B82F6"/>
<path fill-rule="evenodd" clip-rule="evenodd" d="M230.905 23.9102C230.732 27.1242 229.398 28.1242 226.905 26.9102C223.985 27.9962 220.985 28.6622 217.905 28.9102C218.905 28.2432 219.905 27.5772 220.905 26.9102C224.228 25.9182 227.561 24.9182 230.905 23.9102Z" fill="#3B82F6"/>
<path fill-rule="evenodd" clip-rule="evenodd" d="M250.905 16.9102C247.605 19.0522 243.938 20.3852 239.905 20.9102C243.065 18.4102 246.732 17.0772 250.905 16.9102Z" fill="#3B82F6"/>
<path fill-rule="evenodd" clip-rule="evenodd" d="M282.905 7.91016C281.303 9.48406 279.303 10.1508 276.905 9.91016C278.507 8.33626 280.507 7.66956 282.905 7.91016Z" fill="#3B82F6"/>
<path fill-rule="evenodd" clip-rule="evenodd" d="M305.905 3.91016C298.856 6.16476 291.523 7.49816 283.905 7.91016C290.884 5.30066 298.218 3.96736 305.905 3.91016Z" fill="#3B82F6"/>
<path fill-rule="evenodd" clip-rule="evenodd" d="M416.905 3.90971C422.316 3.53471 427.316 4.53471 431.905 6.90971C426.678 6.43141 421.678 5.43141 416.905 3.90971Z" fill="#8E8F91"/>
<path fill-rule="evenodd" clip-rule="evenodd" d="M319.905 1.91037C315.486 3.38187 310.819 4.04857 305.905 3.91037C310.324 2.43887 314.991 1.77217 319.905 1.91037Z" fill="#3B82F6"/>
<path fill-rule="evenodd" clip-rule="evenodd" d="M403.905 1.90977C407.894 1.52617 411.56 2.19277 414.905 3.90977C411.045 3.60137 407.379 2.93467 403.905 1.90977Z" fill="#9C9D9F"/>
<path fill-rule="evenodd" clip-rule="evenodd" d="M403.905 1.91003C407.379 2.93492 411.045 3.60163 414.905 3.91003C415.572 3.91003 416.238 3.91003 416.905 3.91003C421.678 5.43173 426.678 6.43173 431.905 6.91003C471.56 15.2326 508.894 29.233 543.905 48.91C546.227 51.074 548.894 52.741 551.905 53.91C589.569 77.9 622.236 107.567 649.905 142.91C681.458 121.974 713.124 101.307 744.905 80.91C745.896 87.389 746.229 94.056 745.905 100.91C745.162 123.24 744.496 145.574 743.905 167.91C742.474 222.239 741.141 276.573 739.905 330.91C738.816 340.063 738.149 349.396 737.905 358.91C736.905 358.91 735.905 358.91 734.905 358.91C724.013 354.389 713.013 350.055 701.905 345.91C699.616 344.023 696.95 342.689 693.905 341.91C679.28 336.269 664.613 330.603 649.905 324.91C648.229 322.576 645.896 321.576 642.905 321.91C634.674 318.981 626.674 315.648 618.905 311.91C617.303 310.336 615.303 309.669 612.905 309.91C604.238 306.577 595.572 303.243 586.905 299.91C586.432 298.504 585.432 297.837 583.905 297.91C568.574 291.912 553.241 285.912 537.905 279.91C536.229 277.576 533.896 276.576 530.905 276.91C518.223 272.468 505.89 267.468 493.905 261.91C494.751 256.425 493.084 252.091 488.905 248.91C492.572 250.243 496.238 250.243 499.905 248.91C499.905 249.91 499.905 250.91 499.905 251.91C498.572 251.91 497.238 251.91 495.905 251.91C495.905 253.243 495.905 254.577 495.905 255.91C501.697 255.631 503.697 252.798 501.905 247.41C499.04 247.227 496.374 246.727 493.905 245.91C517.318 229.825 540.985 214.158 564.905 198.91C565.988 198.871 566.988 198.537 567.905 197.91C567.389 199.168 568.055 200.168 569.905 200.91C567.712 202.792 568.378 203.292 571.905 202.41C571.902 199.67 570.902 197.003 568.905 194.41C570.132 192.823 569.799 191.489 567.905 190.41C571.821 189.766 575.821 189.266 579.905 188.91C580.897 184.627 581.231 180.294 580.905 175.91C577.521 176.07 574.188 175.737 570.905 174.91C568.461 176.464 565.794 177.464 562.905 177.91C562.019 180.132 562.019 182.298 562.905 184.41C562.569 185.44 561.902 185.94 560.905 185.91C530.511 152.519 494.177 127.852 451.905 111.91C451.794 111.293 451.461 110.793 450.905 110.41C446.958 108.926 442.958 107.76 438.905 106.91C428.712 104.043 418.379 101.71 407.905 99.91C407.487 99.188 406.821 98.688 405.905 98.41C402.923 97.912 399.923 97.745 396.905 97.91C396.238 97.91 395.572 97.91 394.905 97.91C388.126 96.427 381.126 95.76 373.905 95.91C361.905 95.91 349.905 95.91 337.905 95.91C331.601 95.849 325.601 96.849 319.905 98.91C241.036 112.235 179.87 152.235 136.405 218.91C133.292 224.139 130.458 229.472 127.905 234.91C126.499 235.383 125.832 236.383 125.905 237.91C120.279 248.111 115.612 258.777 111.905 269.91C110.201 273.349 108.867 277.015 107.905 280.91C105.942 287.837 104.275 294.837 102.905 301.91C101.365 304.248 100.699 306.915 100.905 309.91C98.8442 315.606 97.8442 321.606 97.9052 327.91C95.6672 347.492 95.3342 367.158 96.9052 386.91C97.2892 391.42 97.9562 395.753 98.9052 399.91C102.808 424.863 109.808 448.863 119.905 471.91C119.832 473.437 120.499 474.437 121.905 474.91C121.905 475.243 121.905 475.577 121.905 475.91C121.832 477.437 122.499 478.437 123.905 478.91C132.989 496.975 143.656 513.975 155.905 529.91C155.748 531.283 155.915 532.617 156.405 533.91C159.801 536.642 162.468 539.975 164.405 543.91C165.55 545.094 166.717 545.094 167.905 543.91C184.563 561.246 203.229 575.913 223.905 587.91C226.227 590.074 228.894 591.741 231.905 592.91C244.469 600.523 257.802 606.523 271.905 610.91C276.49 613.55 281.49 615.216 286.905 615.91C295.673 618.433 304.673 620.433 313.905 621.91C317.25 623.627 320.916 624.294 324.905 623.91C328.486 624.67 332.153 625.17 335.905 625.41C351.235 625.91 366.568 626.077 381.905 625.91C387.155 626.108 392.155 625.441 396.905 623.91C402.279 623.887 407.612 623.387 412.905 622.41C415.927 622.312 418.594 621.478 420.905 619.91C451.523 612.575 479.856 600.242 505.905 582.91C524.324 609.011 541.99 635.678 558.905 662.91C536.918 677.57 513.585 689.57 488.905 698.91C481.267 701.009 473.934 703.676 466.905 706.91C460.151 708.326 453.485 709.993 446.905 711.91C443.243 712.133 439.91 713.133 436.905 714.91C435.572 714.91 434.238 714.91 432.905 714.91C428.42 715.75 424.086 716.75 419.905 717.91C390.019 721.588 360.019 722.754 329.905 721.41C319.651 720.665 309.651 719.165 299.905 716.91C296.195 715.274 292.195 714.608 287.905 714.91C284.496 713.507 280.83 712.84 276.905 712.91C270.238 710.91 263.572 708.91 256.905 706.91C254.89 705.486 252.557 704.82 249.905 704.91C240.769 701.718 231.769 698.385 222.905 694.91C221.229 692.576 218.896 691.576 215.905 691.91C215.014 691.3 214.014 690.967 212.905 690.91C212.432 689.504 211.432 688.837 209.905 688.91C203.989 686.613 198.323 683.947 192.905 680.91C192.432 679.504 191.432 678.837 189.905 678.91C151.593 658.612 118.26 631.945 89.9052 598.91C97.8572 598.924 101.857 594.924 101.905 586.91C107.812 588.376 111.812 586.376 113.905 580.91C113.405 580.577 112.905 580.243 112.405 579.91C111.237 580.919 110.07 581.919 108.905 582.91C107.916 579.303 107.582 575.636 107.905 571.91C104.753 571.369 102.253 572.369 100.405 574.91C99.6342 577.6 98.8012 580.266 97.9052 582.91C96.1082 579.944 94.1082 577.111 91.9052 574.41C90.6122 573.92 89.2782 573.753 87.9052 573.91C89.2382 576.91 90.5722 579.91 91.9052 582.91C89.5022 582.803 87.6692 583.803 86.4052 585.91C86.2192 588.446 85.7192 590.779 84.9052 592.91C63.9892 567.964 46.6562 540.631 32.9052 510.91C32.9782 509.383 32.3112 508.383 30.9052 507.91C13.2042 466.769 3.20438 423.769 0.905181 378.91C0.433881 358.187 1.10058 337.52 2.90518 316.91C4.47148 302.75 6.80488 288.75 9.90518 274.91C11.8552 270.543 13.1882 265.876 13.9052 260.91C28.1782 209.682 52.8452 164.348 87.9052 124.91C96.9192 127.417 101.585 124.084 101.905 114.91C106.628 115.857 110.461 114.524 113.405 110.91C114.186 109.466 114.019 108.133 112.905 106.91C111.256 108.058 109.756 109.391 108.405 110.91C107.908 108.6 107.742 106.267 107.905 103.91C108.238 102.91 108.905 102.243 109.905 101.91C113.326 104.503 116.326 107.669 118.905 111.41C119.853 111.893 120.853 112.059 121.905 111.91C122.383 109.132 121.383 107.132 118.905 105.91C121.357 104.259 123.523 102.259 125.405 99.91C125.597 97.833 126.097 95.833 126.905 93.91C138.259 94.521 140.926 89.854 134.905 79.91C134.905 79.243 135.238 78.91 135.905 78.91C138.509 79.94 141.176 79.94 143.905 78.91C144.161 81.322 143.161 82.989 140.905 83.91C146.781 84.833 148.281 82.5 145.405 76.91C143.676 76.436 142.51 75.436 141.905 73.91C143.335 73.831 144.669 74.164 145.905 74.91C147.243 76.747 148.743 78.413 150.405 79.91C151.685 79.797 152.518 79.13 152.905 77.91C151.185 75.208 149.518 72.542 147.905 69.91C148.378 68.504 149.378 67.837 150.905 67.91C153.299 73.113 156.632 73.947 160.905 70.41C158.811 69.058 156.478 68.558 153.905 68.91C153.905 67.577 153.905 66.243 153.905 64.91C154.238 64.91 154.572 64.91 154.905 64.91C155.901 64.996 156.734 64.662 157.405 63.91C160.238 66.077 162.738 68.577 164.905 71.41C165.853 71.893 166.853 72.059 167.905 71.91C168.161 69.498 167.161 67.831 164.905 66.91C169.973 64.112 172.473 59.779 172.405 53.91C173.576 56.026 175.076 56.692 176.905 55.91C176.096 54.339 175.762 52.672 175.905 50.91C177.304 49.52 178.971 48.52 180.905 47.91C182.917 48.424 184.917 48.59 186.905 48.41C187.362 47.996 187.696 47.496 187.905 46.91C187.162 46.228 186.496 45.561 185.905 44.91C186.238 44.91 186.572 44.91 186.905 44.91C191.332 45.535 194.332 43.869 195.905 39.91C203.249 36.238 210.582 32.572 217.905 28.91C220.985 28.662 223.985 27.996 226.905 26.91C229.398 28.124 230.732 27.124 230.905 23.91C233.703 22.457 236.703 21.457 239.905 20.91C243.938 20.385 247.605 19.052 250.905 16.91C259.294 13.6455 267.961 11.3122 276.905 9.91002C279.303 10.1506 281.303 9.48393 282.905 7.91003C283.238 7.91003 283.572 7.91003 283.905 7.91003C291.523 7.49803 298.856 6.16463 305.905 3.91003C310.819 4.04823 315.486 3.38153 319.905 1.91003C347.844 -0.636675 375.844 -0.636675 403.905 1.91003Z" fill="#3B82F6"/>
<path fill-rule="evenodd" clip-rule="evenodd" d="M337.905 95.9099C332.125 97.4529 326.125 98.4529 319.905 98.9099C325.601 96.8489 331.601 95.8489 337.905 95.9099Z" fill="#3B82F6"/>
<path fill-rule="evenodd" clip-rule="evenodd" d="M373.905 95.9103C381.126 95.7603 388.126 96.4273 394.905 97.9103C387.694 97.9523 380.694 97.2853 373.905 95.9103Z" fill="#949497"/>
<path fill-rule="evenodd" clip-rule="evenodd" d="M428.905 57.9099C432.652 57.8019 436.319 58.3019 439.905 59.4099C438.783 61.0229 439.283 62.1899 441.405 62.9099C441.902 65.5559 442.069 68.2229 441.905 70.9099C439.905 70.9099 437.905 70.9099 435.905 70.9099C435.509 68.3659 436.176 66.1989 437.905 64.4099C436.556 63.6379 435.723 62.4709 435.405 60.9099C433.671 61.6589 431.838 62.1589 429.905 62.4099C430.785 63.7659 431.119 65.2659 430.905 66.9099C435.376 67.0819 435.709 67.9159 431.905 69.4099C432.238 69.7429 432.572 70.0769 432.905 70.4099C429.923 70.9079 426.923 71.0749 423.905 70.9099C423.74 67.2279 423.906 63.5619 424.405 59.9099C426.027 59.3109 427.527 58.6439 428.905 57.9099Z" fill="#3B82F6"/>
<path fill-rule="evenodd" clip-rule="evenodd" d="M396.905 97.9102C399.923 97.7452 402.923 97.9122 405.905 98.4102C406.821 98.6882 407.487 99.1882 407.905 99.9102C404.045 99.6022 400.379 98.9352 396.905 97.9102Z" fill="#3B82F6"/>
<path fill-rule="evenodd" clip-rule="evenodd" d="M134.905 79.9102C140.926 89.8542 138.259 94.5212 126.905 93.9102C126.097 95.8332 125.597 97.8332 125.405 99.9102C123.523 102.259 121.357 104.259 118.905 105.91C121.383 107.132 122.383 109.132 121.905 111.91C120.853 112.059 119.853 111.893 118.905 111.41C116.326 107.669 113.326 104.503 109.905 101.91C110.905 100.243 112.238 98.9102 113.905 97.9102C113.735 99.2322 114.068 100.399 114.905 101.41C120.918 102.609 123.252 100.109 121.905 93.9102C120.189 94.0392 118.522 94.3722 116.905 94.9102C119.572 92.2432 122.238 89.5772 124.905 86.9102C125.238 86.9102 125.572 86.9102 125.905 86.9102C126.427 90.5042 128.427 92.0042 131.905 91.4102C133.683 89.2752 134.35 86.7752 133.905 83.9102C132.572 83.9102 131.238 83.9102 129.905 83.9102C130.99 81.8232 132.656 80.4902 134.905 79.9102Z" fill="#3B82F6"/>
<path fill-rule="evenodd" clip-rule="evenodd" d="M438.905 106.91C442.958 107.76 446.958 108.926 450.905 110.41C451.461 110.793 451.794 111.293 451.905 111.91C447.261 110.811 442.927 109.144 438.905 106.91Z" fill="#3B82F6"/>
<path fill-rule="evenodd" clip-rule="evenodd" d="M107.905 103.91C107.742 106.267 107.908 108.6 108.405 110.91C109.756 109.391 111.256 108.058 112.905 106.91C114.019 108.133 114.186 109.466 113.405 110.91C110.461 114.524 106.628 115.857 101.905 114.91C101.585 124.084 96.9193 127.417 87.9053 124.91C89.0093 123.021 90.3423 121.355 91.9053 119.91C92.2063 122.727 93.5393 123.394 95.9053 121.91C98.3563 119.62 98.3563 117.62 95.9053 115.91C99.5723 111.577 103.572 107.577 107.905 103.91Z" fill="#3B82F6"/>
<path fill-rule="evenodd" clip-rule="evenodd" d="M95.9053 115.91C98.3563 117.62 98.3563 119.62 95.9053 121.91C93.5393 123.394 92.2063 122.727 91.9053 119.91C92.9053 118.243 94.2383 116.91 95.9053 115.91Z" fill="#3B82F6"/>
<path fill-rule="evenodd" clip-rule="evenodd" d="M745.905 100.91C746.238 100.91 746.572 100.91 746.905 100.91C747.393 123.465 746.393 145.799 743.905 167.91C744.496 145.574 745.162 123.24 745.905 100.91Z" fill="#ACAEAF"/>
<path fill-rule="evenodd" clip-rule="evenodd" d="M564.905 198.91C565.861 197.751 566.861 196.584 567.905 195.41C565.446 192.32 563.112 189.153 560.905 185.91C561.902 185.94 562.569 185.44 562.905 184.41C562.019 182.298 562.019 180.132 562.905 177.91C565.794 177.464 568.461 176.464 570.905 174.91C574.188 175.737 577.521 176.07 580.905 175.91C581.231 180.294 580.897 184.627 579.905 188.91C575.821 189.266 571.821 189.766 567.905 190.41C569.799 191.489 570.132 192.823 568.905 194.41C570.902 197.003 571.902 199.67 571.905 202.41C568.378 203.292 567.712 202.792 569.905 200.91C568.055 200.168 567.389 199.168 567.905 197.91C566.988 198.537 565.988 198.871 564.905 198.91Z" fill="#3B82F6"/>
<path fill-rule="evenodd" clip-rule="evenodd" d="M127.905 234.91C127.978 236.437 127.311 237.437 125.905 237.91C125.832 236.383 126.499 235.383 127.905 234.91Z" fill="#747376"/>
<path fill-rule="evenodd" clip-rule="evenodd" d="M493.905 245.91C496.374 246.727 499.04 247.227 501.905 247.41C503.697 252.798 501.697 255.631 495.905 255.91C495.905 254.577 495.905 253.243 495.905 251.91C497.238 251.91 498.572 251.91 499.905 251.91C499.905 250.91 499.905 249.91 499.905 248.91C496.238 250.243 492.572 250.243 488.905 248.91C490.37 247.673 492.037 246.673 493.905 245.91Z" fill="#3B82F6"/>
<path fill-rule="evenodd" clip-rule="evenodd" d="M488.905 248.91C493.084 252.091 494.751 256.425 493.905 261.91C492.002 261.614 490.335 260.947 488.905 259.91C491.539 257.87 491.539 255.703 488.905 253.41C484.488 251.842 482.488 253.342 482.905 257.91C480.605 257.888 479.438 256.888 479.405 254.91C482.207 252.264 485.373 250.264 488.905 248.91Z" fill="#3B82F6"/>
<path fill-rule="evenodd" clip-rule="evenodd" d="M488.906 259.911C486.827 259.44 484.827 258.774 482.906 257.911C482.489 253.343 484.489 251.843 488.906 253.411C491.54 255.704 491.54 257.871 488.906 259.911Z" fill="#3B82F6"/>
<path fill-rule="evenodd" clip-rule="evenodd" d="M13.9053 260.91C13.1883 265.876 11.8553 270.543 9.90527 274.91C10.3282 269.87 11.6613 265.203 13.9053 260.91Z" fill="#ABABAD"/>
<path fill-rule="evenodd" clip-rule="evenodd" d="M530.905 276.91C533.896 276.576 536.229 277.576 537.905 279.91C535.248 279.475 532.914 278.475 530.905 276.91Z" fill="#3B82F6"/>
<path fill-rule="evenodd" clip-rule="evenodd" d="M111.905 269.91C111.601 272.932 111.101 275.932 110.405 278.91C109.697 279.791 108.863 280.457 107.905 280.91C108.867 277.015 110.201 273.349 111.905 269.91Z" fill="#B5B6B7"/>
<path fill-rule="evenodd" clip-rule="evenodd" d="M583.905 297.91C585.432 297.837 586.432 298.504 586.905 299.91C585.378 299.983 584.378 299.316 583.905 297.91Z" fill="#828284"/>
<path fill-rule="evenodd" clip-rule="evenodd" d="M706.905 293.91C710.572 294.577 714.238 295.243 717.905 295.91C717.905 299.91 717.905 303.91 717.905 307.91C712.238 307.91 706.572 307.91 700.905 307.91C700.905 303.91 700.905 299.91 700.905 295.91C703.191 295.815 705.191 295.148 706.905 293.91Z" fill="#3B82F6"/>
<path fill-rule="evenodd" clip-rule="evenodd" d="M102.906 301.91C102.841 304.838 102.174 307.505 100.906 309.91C100.7 306.915 101.366 304.248 102.906 301.91Z" fill="#949596"/>
<path fill-rule="evenodd" clip-rule="evenodd" d="M612.905 309.91C615.303 309.669 617.303 310.336 618.905 311.91C616.507 312.151 614.507 311.484 612.905 309.91Z" fill="#3B82F6"/>
<path fill-rule="evenodd" clip-rule="evenodd" d="M100.905 309.91C101.108 316.24 100.108 322.24 97.905 327.91C97.844 321.606 98.844 315.606 100.905 309.91Z" fill="#969799"/>
<path fill-rule="evenodd" clip-rule="evenodd" d="M2.90515 316.91C1.10055 337.52 0.433852 358.187 0.905152 378.91C-0.450148 359.056 -0.283448 339.056 1.40515 318.91C1.68355 317.994 2.18355 317.328 2.90515 316.91Z" fill="#929394"/>
<path fill-rule="evenodd" clip-rule="evenodd" d="M642.905 321.91C645.896 321.576 648.229 322.576 649.905 324.91C647.248 324.475 644.914 323.475 642.905 321.91Z" fill="#3B82F6"/>
<path fill-rule="evenodd" clip-rule="evenodd" d="M693.905 341.91C696.95 342.689 699.616 344.023 701.905 345.91C698.684 345.514 696.017 344.181 693.905 341.91Z" fill="#3B82F6"/>
<path fill-rule="evenodd" clip-rule="evenodd" d="M739.905 330.91C739.905 340.577 739.905 350.243 739.905 359.91C737.99 360.194 736.324 359.861 734.905 358.91C735.905 358.91 736.905 358.91 737.905 358.91C738.149 349.396 738.816 340.063 739.905 330.91Z" fill="#3B82F6"/>
<path fill-rule="evenodd" clip-rule="evenodd" d="M96.9053 386.91C97.6273 387.328 98.1273 387.994 98.4053 388.91C98.9043 392.562 99.0703 396.228 98.9053 399.91C97.9563 395.753 97.2893 391.42 96.9053 386.91Z" fill="#AAABAD"/>
<path fill-rule="evenodd" clip-rule="evenodd" d="M30.9048 507.91C32.3108 508.383 32.9778 509.383 32.9048 510.91C31.4988 510.437 30.8318 509.437 30.9048 507.91Z" fill="#3B82F6"/>
<path fill-rule="evenodd" clip-rule="evenodd" d="M155.906 529.91C160.369 534.164 164.369 538.831 167.906 543.91C166.718 545.094 165.551 545.094 164.406 543.91C162.469 539.975 159.802 536.642 156.406 533.91C155.916 532.617 155.749 531.283 155.906 529.91Z" fill="#3B82F6"/>
<path fill-rule="evenodd" clip-rule="evenodd" d="M141.905 538.91C145.289 540.568 148.123 542.901 150.405 545.91C151.04 547.376 151.874 548.71 152.905 549.91C152.37 551.511 151.37 552.011 149.905 551.41C148.624 549.007 146.791 547.173 144.405 545.91C144.208 543.549 143.041 541.882 140.905 540.91C141.268 540.227 141.601 539.56 141.905 538.91Z" fill="#3B82F6"/>
<path fill-rule="evenodd" clip-rule="evenodd" d="M144.905 529.91C146.161 530.314 147.328 530.981 148.405 531.91C149.845 531.262 151.345 530.929 152.905 530.91C152.612 533.099 152.112 535.099 151.405 536.91C153.238 538.577 155.072 540.243 156.905 541.91C158.141 541.164 159.475 540.831 160.905 540.91C161.075 542.232 160.742 543.399 159.905 544.41C157.905 545.077 155.905 545.077 153.905 544.41C151.394 541.567 148.561 539.067 145.405 536.91C143.99 534.567 143.823 532.233 144.905 529.91Z" fill="#3B82F6"/>
<path fill-rule="evenodd" clip-rule="evenodd" d="M136.905 542.91C138.238 542.91 139.572 542.91 140.905 542.91C140.905 543.91 140.905 544.91 140.905 545.91C139.905 545.91 138.905 545.91 137.905 545.91C137.905 546.91 137.905 547.91 137.905 548.91C140.853 548.633 143.686 548.966 146.405 549.91C147.72 555.427 145.554 558.093 139.905 557.91C139.905 556.577 139.905 555.243 139.905 553.91C141.383 554.172 142.716 553.839 143.905 552.91C135.044 553.747 132.711 550.414 136.905 542.91Z" fill="#3B82F6"/>
<path fill-rule="evenodd" clip-rule="evenodd" d="M125.905 551.911C135.303 550.151 139.136 553.817 137.405 562.911C134.419 566.378 130.586 567.712 125.905 566.911C126.351 572.355 124.017 576.021 118.905 577.911C120.82 579.482 121.82 581.482 121.905 583.911C116.152 580.819 112.152 576.152 109.905 569.911C110.924 562.904 114.924 560.237 121.905 561.911C121.88 557.975 123.214 554.641 125.905 551.911Z" fill="#3B82F6"/>
<path fill-rule="evenodd" clip-rule="evenodd" d="M127.906 554.91C133.893 554.387 135.893 556.887 133.906 562.41C126.245 564.578 124.245 562.078 127.906 554.91Z" fill="#3B82F6"/>
<path fill-rule="evenodd" clip-rule="evenodd" d="M114.906 565.91C121.942 565.013 123.609 567.513 119.906 573.41C113.999 574.156 112.333 571.656 114.906 565.91Z" fill="#3B82F6"/>
<path fill-rule="evenodd" clip-rule="evenodd" d="M89.9053 598.91C87.4913 597.499 85.8243 595.499 84.9053 592.91C85.7193 590.779 86.2193 588.446 86.4053 585.91C87.6693 583.803 89.5023 582.803 91.9053 582.91C90.5723 579.91 89.2383 576.91 87.9053 573.91C89.2783 573.753 90.6123 573.92 91.9053 574.41C94.1083 577.111 96.1083 579.944 97.9053 582.91C98.8013 580.266 99.6343 577.6 100.405 574.91C102.253 572.369 104.753 571.369 107.905 571.91C107.582 575.636 107.916 579.303 108.905 582.91C110.07 581.919 111.237 580.919 112.405 579.91C112.905 580.243 113.405 580.577 113.905 580.91C111.812 586.376 107.812 588.376 101.905 586.91C101.857 594.924 97.8573 598.924 89.9053 598.91Z" fill="#3B82F6"/>
<path fill-rule="evenodd" clip-rule="evenodd" d="M101.905 576.91C102.905 576.91 103.905 576.91 104.905 576.91C104.905 578.91 104.905 580.91 104.905 582.91C103.905 582.91 102.905 582.91 101.905 582.91C101.905 580.91 101.905 578.91 101.905 576.91Z" fill="#3B82F6"/>
<path fill-rule="evenodd" clip-rule="evenodd" d="M223.905 587.91C226.532 588.515 229.198 589.015 231.905 589.41C231.238 589.743 230.572 590.077 229.905 590.41C230.786 591.118 231.452 591.952 231.905 592.91C228.894 591.741 226.227 590.074 223.905 587.91Z" fill="#B6B6B9"/>
<path fill-rule="evenodd" clip-rule="evenodd" d="M90.9053 585.91C98.0813 585.395 99.7473 588.228 95.9053 594.41C91.6343 595.923 89.3003 594.423 88.9053 589.91C89.1573 588.337 89.8233 587.004 90.9053 585.91Z" fill="#3B82F6"/>
<path fill-rule="evenodd" clip-rule="evenodd" d="M271.905 610.91C277.259 611.766 282.259 613.433 286.905 615.91C281.49 615.216 276.49 613.55 271.905 610.91Z" fill="#818182"/>
<path fill-rule="evenodd" clip-rule="evenodd" d="M420.905 619.91C418.594 621.478 415.927 622.312 412.905 622.41C407.612 623.387 402.279 623.887 396.905 623.91C404.74 622.382 412.74 621.049 420.905 619.91Z" fill="#3B82F6"/>
<path fill-rule="evenodd" clip-rule="evenodd" d="M313.905 621.91C317.765 622.218 321.431 622.885 324.905 623.91C320.916 624.294 317.25 623.627 313.905 621.91Z" fill="#3B82F6"/>
<path fill-rule="evenodd" clip-rule="evenodd" d="M396.905 623.91C392.155 625.441 387.155 626.108 381.905 625.91C386.655 624.379 391.655 623.712 396.905 623.91Z" fill="#3B82F6"/>
<path fill-rule="evenodd" clip-rule="evenodd" d="M189.905 678.91C191.432 678.837 192.432 679.504 192.905 680.91C191.378 680.983 190.378 680.316 189.905 678.91Z" fill="#3B82F6"/>
<path fill-rule="evenodd" clip-rule="evenodd" d="M209.905 688.91C211.432 688.837 212.432 689.504 212.905 690.91C211.378 690.983 210.378 690.316 209.905 688.91Z" fill="#838383"/>
<path fill-rule="evenodd" clip-rule="evenodd" d="M215.905 691.91C218.896 691.576 221.229 692.576 222.905 694.91C220.248 694.475 217.914 693.475 215.905 691.91Z" fill="#3B82F6"/>
<path fill-rule="evenodd" clip-rule="evenodd" d="M488.905 698.91C488.794 699.527 488.461 700.027 487.905 700.41C481.061 703.17 474.061 705.337 466.905 706.91C473.934 703.676 481.267 701.009 488.905 698.91Z" fill="#A4A5A6"/>
<path fill-rule="evenodd" clip-rule="evenodd" d="M249.905 704.91C252.557 704.82 254.89 705.486 256.905 706.91C254.253 707 251.92 706.334 249.905 704.91Z" fill="#3B82F6"/>
<path fill-rule="evenodd" clip-rule="evenodd" d="M446.905 711.91C443.9 713.687 440.567 714.687 436.905 714.91C439.91 713.133 443.243 712.133 446.905 711.91Z" fill="#9C9E9E"/>
<path fill-rule="evenodd" clip-rule="evenodd" d="M276.905 712.91C280.83 712.84 284.496 713.507 287.905 714.91C283.756 715.49 280.089 714.824 276.905 712.91Z" fill="#B6B8B8"/>
<path fill-rule="evenodd" clip-rule="evenodd" d="M287.905 714.911C292.195 714.609 296.195 715.275 299.905 716.911C295.615 717.213 291.615 716.547 287.905 714.911Z" fill="#3B82F6"/>
<path fill-rule="evenodd" clip-rule="evenodd" d="M432.905 714.91C430.503 715.777 428.337 717.11 426.405 718.91C424.364 717.987 422.197 717.654 419.905 717.91C424.086 716.75 428.42 715.75 432.905 714.91Z" fill="#B3B4B5"/>
</svg>
