<svg width="48" height="48" viewBox="0 0 48 48" fill="none" xmlns="http://www.w3.org/2000/svg">
<path d="M40 20H25.98V16.42C25.98 15.52 24.9 15.08 24.28 15.72L18.72 21.3C18.34 21.7 18.34 22.32 18.72 22.72L24.28 28.3C24.9 28.94 25.98 28.48 25.98 27.6V24H40V34H8V10H40V14C40 15.1 40.9 16 42 16C43.1 16 44 15.1 44 14V10C44 7.8 42.2 6 40 6H8C5.8 6 4 7.8 4 10V34C4 36.2 5.8 38 8 38H16V40C16 41.1 16.9 42 18 42H30C31.1 42 32 41.1 32 40V38H40C42.2 38 44 36.2 44 34V24C44 21.8 42.2 20 40 20Z" fill="#3286FE"/>
</svg>
