<svg width="31" height="30" viewBox="0 0 31 30" fill="none" xmlns="http://www.w3.org/2000/svg">
<path d="M16.4734 7.5009C16.6729 6.93534 16.734 6.33016 16.6513 5.73614C16.5687 5.14211 16.3447 4.57658 15.9983 4.08699C15.6519 3.5974 15.1932 3.19803 14.6605 2.92241C14.1278 2.64678 13.5368 2.50293 12.9371 2.50293C12.3374 2.50293 11.7464 2.64678 11.2137 2.92241C10.681 3.19803 10.2223 3.5974 9.87586 4.08699C9.52946 4.57658 9.30554 5.14211 9.22289 5.73614C9.14023 6.33016 9.20126 6.93534 9.40085 7.5009C6.5446 7.5109 5.02085 7.6134 4.03585 8.5984C3.05085 9.5834 2.94835 11.1072 2.93835 13.9622C3.50381 13.7632 4.10872 13.7028 4.70237 13.7858C5.29601 13.8689 5.8611 14.093 6.35026 14.4395C6.83941 14.786 7.23839 15.2446 7.51374 15.7771C7.78908 16.3095 7.93278 16.9002 7.93278 17.4997C7.93278 18.0991 7.78908 18.6898 7.51374 19.2222C7.23839 19.7547 6.83941 20.2133 6.35026 20.5598C5.8611 20.9063 5.29601 21.1304 4.70237 21.2135C4.10872 21.2965 3.50381 21.2361 2.93835 21.0372C2.94835 23.8922 3.05085 25.4159 4.03585 26.4009C5.02085 27.3859 6.5446 27.4884 9.3996 27.4984C9.20069 26.9329 9.14022 26.328 9.22328 25.7344C9.30633 25.1407 9.53048 24.5757 9.87695 24.0865C10.2234 23.5973 10.6821 23.1984 11.2145 22.923C11.747 22.6477 12.3377 22.504 12.9371 22.504C13.5365 22.504 14.1272 22.6477 14.6597 22.923C15.1921 23.1984 15.6508 23.5973 15.9973 24.0865C16.3437 24.5757 16.5679 25.1407 16.6509 25.7344C16.734 26.328 16.6735 26.9329 16.4746 27.4984C19.3296 27.4884 20.8534 27.3859 21.8384 26.4009C22.8234 25.4159 22.9259 23.8922 22.9359 21.0359C23.5014 21.2355 24.1066 21.2965 24.7006 21.2139C25.2946 21.1312 25.8602 20.9073 26.3498 20.5609C26.8394 20.2145 27.2387 19.7557 27.5144 19.2231C27.79 18.6904 27.9338 18.0994 27.9338 17.4997C27.9338 16.8999 27.79 16.3089 27.5144 15.7763C27.2387 15.2436 26.8394 14.7848 26.3498 14.4384C25.8602 14.092 25.2946 13.8681 24.7006 13.7854C24.1066 13.7028 23.5014 13.7638 22.9359 13.9634C22.9259 11.1072 22.8234 9.5834 21.8384 8.5984C20.8534 7.61215 19.3296 7.5109 16.4734 7.5009Z" stroke="#1F2937" stroke-width="1.875" stroke-linecap="round" stroke-linejoin="round"/>
</svg>
