<svg width="769" height="671" viewBox="0 0 769 671" fill="none" xmlns="http://www.w3.org/2000/svg">
<path fill-rule="evenodd" clip-rule="evenodd" d="M554 46C579.573 46.0177 604.472 54.2045 625.065 69.3668C645.658 84.529 660.87 105.874 668.48 130.288L752.96 425.008C757.248 438.704 760.64 452.56 763.136 466.576C766.56 477.84 768.304 489.648 768.368 502V550C768.368 581.824 755.744 612.4 733.232 634.96C710.72 657.472 680.432 670.096 648.272 670.096H120.272C88.4481 670.096 57.8721 657.472 35.3121 634.96C24.1583 623.803 15.3139 610.557 9.28485 595.978C3.25582 581.4 0.160529 565.776 0.176084 550V502C0.176084 490 1.95208 478.048 5.45608 466.576C7.94559 452.519 11.3284 438.635 15.5841 425.008L100.064 130.288C107.675 105.874 122.886 84.529 143.479 69.3668C164.072 54.2045 188.971 46.0177 214.544 46H553.424H554ZM648.56 430H120.56C105.573 429.961 90.9504 434.616 78.7434 443.311C66.5364 452.005 57.358 464.304 52.4961 478.48C49.8728 494.184 48.5563 510.078 48.5601 526V550C48.5728 569.079 56.1575 587.373 69.6484 600.864C83.1392 614.355 101.433 621.939 120.512 621.952H648.512C667.591 621.939 685.885 614.355 699.376 600.864C712.867 587.373 720.451 569.079 720.464 550V526C720.464 510.032 719.168 494.192 716.576 478.48C711.68 464.316 702.487 452.032 690.277 443.341C678.068 434.651 663.451 429.987 648.464 430H648.56ZM648.56 478C654.925 478 661.03 480.529 665.531 485.029C670.032 489.53 672.56 495.635 672.56 502V550C672.56 556.365 670.032 562.47 665.531 566.971C661.03 571.471 654.925 574 648.56 574C642.195 574 636.09 571.471 631.59 566.971C627.089 562.47 624.56 556.365 624.56 550V502C624.56 495.635 627.089 489.53 631.59 485.029C636.09 480.529 642.195 478 648.56 478ZM552.56 478C558.925 478 565.03 480.529 569.531 485.029C574.032 489.53 576.56 495.635 576.56 502V550C576.56 556.365 574.032 562.47 569.531 566.971C565.03 571.471 558.925 574 552.56 574C546.195 574 540.09 571.471 535.59 566.971C531.089 562.47 528.56 556.365 528.56 550V502C528.56 495.635 531.089 489.53 535.59 485.029C540.09 480.529 546.195 478 552.56 478ZM456.56 478C462.925 478 469.03 480.529 473.531 485.029C478.032 489.53 480.56 495.635 480.56 502V550C480.56 556.365 478.032 562.47 473.531 566.971C469.03 571.471 462.925 574 456.56 574C450.195 574 444.09 571.471 439.59 566.971C435.089 562.47 432.56 556.365 432.56 550V502C432.56 495.635 435.089 489.53 439.59 485.029C444.09 480.529 450.195 478 456.56 478ZM360.56 478C366.925 478 373.03 480.529 377.531 485.029C382.032 489.53 384.56 495.635 384.56 502V550C384.56 556.365 382.032 562.47 377.531 566.971C373.03 571.471 366.925 574 360.56 574C354.195 574 348.09 571.471 343.59 566.971C339.089 562.47 336.56 556.365 336.56 550V502C336.56 495.635 339.089 489.53 343.59 485.029C348.09 480.529 354.195 478 360.56 478ZM554 94H215.12C199.788 94.0189 184.862 98.9316 172.516 108.023C160.171 117.114 151.049 129.909 146.48 144.544L77.3601 390.304C90.8001 385.024 105.392 382.192 120.752 382.192H648.752C664.064 382.192 678.704 385.072 692.144 390.304L623.024 144.544C618.486 129.881 609.366 117.059 597.003 107.962C584.64 98.8644 569.685 93.9709 554.336 94H554Z" fill="#3286FE"/>
<path d="M401 32V160M401 288H401.32" stroke="#E63946" stroke-width="64" stroke-linecap="round" stroke-linejoin="round"/>
</svg>
