<svg width="778" height="782" viewBox="0 0 778 782" fill="none" xmlns="http://www.w3.org/2000/svg">
<path fill-rule="evenodd" clip-rule="evenodd" d="M163.063 0C167.545 0.8255 172.212 1.3255 177.063 1.5C316.45 1.4621 456.117 1.4621 596.062 1.5C601.578 1.3267 606.911 0.8267 612.062 0C637.506 1.1292 655.672 13.1292 666.562 36C667.385 38.6168 667.884 41.2835 668.062 44C667.972 46.652 668.638 48.985 670.062 51C674.988 71.958 679.654 92.958 684.062 114C684.286 117.662 685.286 120.995 687.062 124C687.062 124.333 687.062 124.667 687.062 125C686.972 127.652 687.638 129.985 689.062 132C689.062 132.667 689.062 133.333 689.062 134C688.972 136.652 689.638 138.985 691.062 141C691.062 141.667 691.062 142.333 691.062 143C690.972 145.652 691.638 147.985 693.062 150C693.062 150.667 693.062 151.333 693.062 152C692.972 154.652 693.638 156.985 695.062 159C696.446 163.916 697.446 168.916 698.062 174C697.972 176.652 698.638 178.985 700.062 181C705.396 204.667 710.729 228.333 716.062 252C716.127 254.928 716.794 257.595 718.062 260C717.972 262.652 718.638 264.985 720.062 267C720.08 269.065 720.413 271.065 721.062 273C720.448 277.569 721.448 281.569 724.062 285C724.062 285.667 724.062 286.333 724.062 287C723.972 289.652 724.638 291.985 726.062 294C731.811 317.576 737.143 341.243 742.062 365C741.972 367.652 742.638 369.985 744.062 372C744.296 378.045 745.629 383.712 748.062 389C748.062 389.333 748.062 389.667 748.062 390C747.972 392.652 748.638 394.985 750.062 397C750.062 397.667 750.062 398.333 750.062 399C749.972 401.652 750.638 403.985 752.062 406C758.705 435.243 765.372 464.576 772.062 494C771.972 496.652 772.638 498.985 774.062 501C773.794 502.599 774.128 503.932 775.062 505C775.062 506.333 775.062 507.667 775.062 509C774.41 509.949 774.077 511.115 774.062 512.5C774.719 583.822 775.385 654.988 776.062 726C776.062 727 776.062 728 776.062 729C773.112 752.942 760.445 769.275 738.062 778C734.724 778.39 731.389 778.89 728.062 779.5C501.73 780 275.397 780.167 49.0625 780C21.9417 775.714 5.77501 760.047 0.562514 733C0.0625141 659.001 -0.104186 585.001 0.0625141 511C1.48631 508.985 2.15301 506.652 2.06251 504C3.48631 501.985 4.15301 499.652 4.06251 497C3.96381 494.263 4.29721 491.596 5.06251 489C6.48631 486.985 7.15301 484.652 7.06251 482C14.3744 451.158 21.3744 420.158 28.0625 389C29.4863 386.985 30.153 384.652 30.0625 382C30.0625 381.667 30.0625 381.333 30.0625 381C32.0731 380.083 33.0731 378.417 33.0625 376C33.7263 372.024 34.0596 368.024 34.0625 364C41.2715 332.763 48.2715 301.43 55.0625 270C55.6795 269.889 56.1795 269.556 56.5625 269C56.8035 266.211 57.4705 263.544 58.5625 261C59.1185 263.095 59.6185 263.262 60.0625 261.5C59.2145 258.73 58.8815 255.897 59.0625 253C59.4735 249.279 60.1405 245.612 61.0625 242C62.4865 239.985 63.1525 237.652 63.0625 235C70.3935 202.352 77.7275 169.685 85.0625 137C86.4865 134.985 87.1525 132.652 87.0625 130C86.9825 126.719 87.6495 123.719 89.0625 121C90.4865 118.985 91.1525 116.652 91.0625 114C91.2365 111.639 91.5695 109.306 92.0625 107C93.4865 104.985 94.1525 102.652 94.0625 100C98.4475 78.575 103.282 57.242 108.563 36C119.205 12.5964 137.372 0.5964 163.063 0Z" fill="#3286FE"/>
<path fill-rule="evenodd" clip-rule="evenodd" d="M163.062 0C312.73 0 462.395 0 612.062 0C606.911 0.8267 601.578 1.3267 596.062 1.5C456.117 1.4621 316.449 1.4621 177.062 1.5C172.212 1.3255 167.544 0.8255 163.062 0Z" fill="#207DFE"/>
<path fill-rule="evenodd" clip-rule="evenodd" d="M668.063 44C669.487 46.015 670.153 48.348 670.063 51C668.639 48.985 667.973 46.652 668.063 44Z" fill="#8BB9FE"/>
<path fill-rule="evenodd" clip-rule="evenodd" d="M628.063 122C627.822 124.398 628.489 126.398 630.063 128C633.109 140.562 635.776 153.229 638.063 166C637.973 168.652 638.639 170.985 640.063 173C640.904 174.879 641.238 176.879 641.063 179C640.973 181.652 641.639 183.985 643.063 186C647.366 202.845 651.032 219.845 654.063 237C654.286 240.662 655.286 243.995 657.063 247C657.904 248.879 658.238 250.879 658.063 253C657.973 255.652 658.639 257.985 660.063 260C661.442 264.897 662.442 269.897 663.063 275C662.973 277.652 663.639 279.985 665.063 282C671.575 308.892 677.575 335.892 683.063 363C682.973 365.652 683.639 367.985 685.063 370C685.904 371.879 686.238 373.879 686.063 376C686.286 379.662 687.286 382.995 689.063 386C691.538 395.565 693.538 405.232 695.063 415C694.973 417.652 695.639 419.985 697.063 422C697.904 423.879 698.238 425.879 698.063 428C697.973 430.652 698.639 432.985 700.063 435C700.063 435.667 700.063 436.333 700.063 437C699.973 439.652 700.639 441.985 702.063 444C702.904 445.879 703.238 447.879 703.063 450C702.973 452.652 703.639 454.985 705.063 457C706.442 461.895 707.442 466.895 708.063 472C707.973 474.652 708.639 476.985 710.063 479C711.35 482.198 712.016 485.531 712.063 489C711.973 491.652 712.639 493.985 714.063 496C716.501 501.759 717.334 507.759 716.563 514C715.892 514.752 715.059 515.086 714.063 515C496.023 515.331 278.023 514.998 60.0628 514C58.8998 508.731 59.2328 503.398 61.0628 498C62.6368 496.398 63.3038 494.398 63.0628 492C63.0628 491.667 63.0628 491.333 63.0628 491C64.4868 488.985 65.1528 486.652 65.0628 484C64.8608 481.55 65.1938 479.217 66.0628 477C67.4868 474.985 68.1528 472.652 68.0628 470C70.5808 457.598 73.2478 445.265 76.0628 433C77.4868 430.985 78.1528 428.652 78.0628 426C78.0798 423.935 78.4128 421.935 79.0628 420C80.4868 417.985 81.1528 415.652 81.0628 413C81.7458 407.603 82.7458 402.269 84.0628 397C85.4868 394.985 86.1528 392.652 86.0628 390C86.0798 387.935 86.4128 385.935 87.0628 384C89.5978 380.145 90.5978 375.812 90.0628 371C90.0628 370.667 90.0628 370.333 90.0628 370C91.7258 368.062 92.3918 365.728 92.0628 363C92.7718 356.835 94.1048 350.835 96.0628 345C97.4868 342.985 98.1528 340.652 98.0628 338C100.652 323.904 103.652 309.904 107.063 296C108.487 293.985 109.153 291.652 109.063 289C112.261 271.876 115.928 254.876 120.063 238C121.487 235.985 122.153 233.652 122.063 231C122.928 224.544 124.261 218.21 126.063 212C127.487 209.985 128.153 207.652 128.063 205C131.243 189.281 134.577 173.615 138.063 158C140.677 154.569 141.677 150.569 141.063 146C141.08 143.935 141.413 141.935 142.063 140C143.487 137.985 144.153 135.652 144.063 133C149.246 108.266 154.746 83.5993 160.563 59.0003C161.396 58.1673 162.23 57.3332 163.063 56.5002C312.396 55.8332 461.73 55.8332 611.063 56.5002C612.612 57.7142 613.778 59.2142 614.563 61.0002C619.065 81.3493 623.565 101.682 628.063 122Z" fill="#FEFEFE"/>
<path fill-rule="evenodd" clip-rule="evenodd" d="M94.0627 100C94.1527 102.652 93.4867 104.985 92.0627 107C91.9727 104.348 92.6387 102.015 94.0627 100Z" fill="#89B8FF"/>
<path fill-rule="evenodd" clip-rule="evenodd" d="M452.063 127C454.072 128.565 456.406 129.565 459.063 130C489.887 144.313 514.387 165.98 532.563 195C535.601 199.743 538.101 204.743 540.063 210C539.99 211.527 540.657 212.527 542.063 213C545.359 219.308 547.692 225.975 549.063 233C548.822 235.398 549.489 237.398 551.063 239C552.916 243.435 553.916 248.102 554.063 253C555.715 266.605 556.382 280.271 556.063 294C555.708 302.782 554.708 311.449 553.063 320C551.639 322.015 550.973 324.348 551.063 327C551.331 328.599 550.997 329.932 550.063 331C548.025 335.44 546.359 340.107 545.063 345C526.454 389.276 495.121 420.942 451.063 440C446.648 440.361 442.648 441.694 439.063 444C412.778 451.204 386.111 452.87 359.063 449C357.048 447.576 354.715 446.91 352.063 447C348.933 446.8 345.933 446.134 343.063 445C340.627 443.629 337.96 442.629 335.063 442C308.881 433.581 286.215 419.581 267.063 400C265.806 397.073 263.806 394.739 261.063 393C246.993 375.855 236.326 356.855 229.063 336C228.84 332.338 227.84 329.005 226.063 326C223.528 316.251 222.195 306.251 222.063 296C221.441 281.89 222.274 267.89 224.563 254C224.896 254.667 225.23 255.333 225.563 256C226.013 253.981 226.846 252.148 228.063 250.5C226.845 249.062 226.178 247.395 226.063 245.5C227.312 244.659 228.312 242.992 229.063 240.5C228.128 238.119 227.795 235.619 228.063 233C228.063 232.667 228.063 232.333 228.063 232C230.147 229.447 231.48 226.447 232.063 223C250.412 175.651 283.412 142.985 331.063 125C334.725 124.777 338.058 123.777 341.063 122C344.489 120.226 348.156 119.226 352.063 119C354.355 118.744 356.522 119.077 358.563 120C361.64 118.408 364.807 117.075 368.063 116C396.995 112.841 424.995 116.507 452.063 127Z" fill="#3386FE"/>
<path fill-rule="evenodd" clip-rule="evenodd" d="M368.062 116C364.806 117.075 361.639 118.408 358.562 120C356.522 119.077 354.355 118.744 352.062 119C357.168 117.456 362.502 116.456 368.062 116Z" fill="#6BA1FF"/>
<path fill-rule="evenodd" clip-rule="evenodd" d="M91.062 114C91.152 116.652 90.486 118.985 89.062 121C88.733 118.272 89.399 115.938 91.062 114Z" fill="#7AAFFF"/>
<path fill-rule="evenodd" clip-rule="evenodd" d="M684.062 114C685.839 117.005 686.839 120.338 687.062 124C685.286 120.995 684.286 117.662 684.062 114Z" fill="#88B7FF"/>
<path fill-rule="evenodd" clip-rule="evenodd" d="M341.062 122C338.057 123.777 334.724 124.777 331.062 125C334.068 123.223 337.401 122.223 341.062 122Z" fill="#80B1FE"/>
<path fill-rule="evenodd" clip-rule="evenodd" d="M452.062 127C455.053 126.666 457.387 127.666 459.062 130C456.405 129.565 454.072 128.565 452.062 127Z" fill="#B3D1FE"/>
<path fill-rule="evenodd" clip-rule="evenodd" d="M628.063 122C629.637 123.602 630.304 125.602 630.063 128C628.489 126.398 627.822 124.398 628.063 122Z" fill="#8BB9FE"/>
<path fill-rule="evenodd" clip-rule="evenodd" d="M687.063 125C688.487 127.015 689.153 129.348 689.063 132C687.639 129.985 686.973 127.652 687.063 125Z" fill="#AFD0FE"/>
<path fill-rule="evenodd" clip-rule="evenodd" d="M87.0627 130C87.1527 132.652 86.4867 134.985 85.0627 137C84.9727 134.348 85.6387 132.015 87.0627 130Z" fill="#94BFFE"/>
<path fill-rule="evenodd" clip-rule="evenodd" d="M144.063 133C144.153 135.652 143.487 137.985 142.063 140C141.973 137.348 142.639 135.015 144.063 133Z" fill="#96C0FE"/>
<path fill-rule="evenodd" clip-rule="evenodd" d="M689.063 134C690.487 136.015 691.153 138.348 691.063 141C689.639 138.985 688.973 136.652 689.063 134Z" fill="#A5CAFF"/>
<path fill-rule="evenodd" clip-rule="evenodd" d="M691.063 143C692.487 145.015 693.153 147.348 693.063 150C691.639 147.985 690.973 145.652 691.063 143Z" fill="#9BC3FF"/>
<path fill-rule="evenodd" clip-rule="evenodd" d="M141.062 146C141.677 150.569 140.677 154.569 138.062 158C138.695 153.798 139.694 149.798 141.062 146Z" fill="#C5DCFE"/>
<path fill-rule="evenodd" clip-rule="evenodd" d="M693.063 152C694.487 154.015 695.153 156.348 695.063 159C693.639 156.985 692.973 154.652 693.063 152Z" fill="#93BEFF"/>
<path fill-rule="evenodd" clip-rule="evenodd" d="M638.063 166C639.487 168.015 640.153 170.348 640.063 173C638.639 170.985 637.973 168.652 638.063 166Z" fill="#B0D1FE"/>
<path fill-rule="evenodd" clip-rule="evenodd" d="M698.063 174C699.487 176.015 700.153 178.348 700.063 181C698.639 178.985 697.973 176.652 698.063 174Z" fill="#83B4FE"/>
<path fill-rule="evenodd" clip-rule="evenodd" d="M641.063 179C642.487 181.015 643.153 183.348 643.063 186C641.639 183.985 640.973 181.652 641.063 179Z" fill="#ACCCFF"/>
<path fill-rule="evenodd" clip-rule="evenodd" d="M408.062 196.001C409.202 229.311 409.368 262.645 408.562 296.001C407.955 297.655 407.454 299.322 407.062 301.001C403.902 305.422 399.569 308.088 394.062 309.001C389.359 309.064 384.693 308.73 380.062 308.001C374.898 305.505 371.564 301.505 370.062 296.001C370.062 263.001 370.062 230.001 370.062 197.001C373.513 188.857 379.679 184.857 388.562 185.001C397.382 184.658 403.883 188.325 408.062 196.001Z" fill="#FDFEFE"/>
<path fill-rule="evenodd" clip-rule="evenodd" d="M128.063 205C128.153 207.652 127.487 209.985 126.063 212C125.973 209.348 126.639 207.015 128.063 205Z" fill="#ADCBFE"/>
<path fill-rule="evenodd" clip-rule="evenodd" d="M540.062 210C541.468 210.473 542.135 211.473 542.062 213C540.656 212.527 539.989 211.527 540.062 210Z" fill="#96C0FE"/>
<path fill-rule="evenodd" clip-rule="evenodd" d="M408.062 196C408.785 196.418 409.285 197.084 409.562 198C410.229 231 410.229 264 409.562 297C409.362 298.82 408.528 300.153 407.062 301C407.454 299.321 407.955 297.654 408.562 296C409.368 262.644 409.202 229.31 408.062 196Z" fill="#D2E5FE"/>
<path fill-rule="evenodd" clip-rule="evenodd" d="M232.062 223C231.479 226.447 230.147 229.447 228.062 232C228.646 228.553 229.978 225.553 232.062 223Z" fill="#9EC4FF"/>
<path fill-rule="evenodd" clip-rule="evenodd" d="M122.063 231C122.153 233.652 121.487 235.985 120.063 238C119.973 235.348 120.639 233.015 122.063 231Z" fill="#9DC4FE"/>
<path fill-rule="evenodd" clip-rule="evenodd" d="M549.063 233C550.637 234.602 551.304 236.602 551.063 239C549.489 237.398 548.822 235.398 549.063 233Z" fill="#7CAFFE"/>
<path fill-rule="evenodd" clip-rule="evenodd" d="M63.0627 235C63.1527 237.652 62.4867 239.985 61.0627 242C60.9727 239.348 61.6387 237.015 63.0627 235Z" fill="#B1D0FF"/>
<path fill-rule="evenodd" clip-rule="evenodd" d="M654.062 237C655.839 240.005 656.839 243.338 657.062 247C655.286 243.995 654.286 240.662 654.062 237Z" fill="#B9D4FE"/>
<path fill-rule="evenodd" clip-rule="evenodd" d="M716.062 252C717.602 254.338 718.269 257.005 718.062 260C716.794 257.595 716.127 254.928 716.062 252Z" fill="#87B7FF"/>
<path fill-rule="evenodd" clip-rule="evenodd" d="M370.063 197C370.063 230 370.063 263 370.063 296C369.341 295.582 368.841 294.916 368.563 294C367.896 262.667 367.896 231.333 368.563 200C368.795 198.763 369.295 197.763 370.063 197Z" fill="#C9DDFF"/>
<path fill-rule="evenodd" clip-rule="evenodd" d="M658.063 253C659.487 255.015 660.153 257.348 660.063 260C658.639 257.985 657.973 255.652 658.063 253Z" fill="#91BCFE"/>
<path fill-rule="evenodd" clip-rule="evenodd" d="M59.0625 253C58.8815 255.897 59.2145 258.73 60.0625 261.5C59.6185 263.262 59.1185 263.095 58.5625 261C57.4705 263.544 56.8035 266.211 56.5625 269C56.1795 269.556 55.6795 269.889 55.0625 270C55.6505 264.039 56.9835 258.373 59.0625 253Z" fill="#71A6FE"/>
<path fill-rule="evenodd" clip-rule="evenodd" d="M718.063 260C719.487 262.015 720.153 264.348 720.063 267C718.639 264.985 717.973 262.652 718.063 260Z" fill="#9FC5FE"/>
<path fill-rule="evenodd" clip-rule="evenodd" d="M554.062 253C555.301 257.119 556.134 261.453 556.562 266C557.387 275.509 557.22 284.843 556.062 294C556.382 280.271 555.714 266.605 554.062 253Z" fill="#6AA8FE"/>
<path fill-rule="evenodd" clip-rule="evenodd" d="M228.063 233C227.795 235.619 228.128 238.119 229.063 240.5C228.312 242.992 227.312 244.659 226.063 245.5C226.178 247.395 226.845 249.062 228.063 250.5C226.846 252.148 226.013 253.981 225.563 256C225.23 255.333 224.896 254.667 224.563 254C222.274 267.89 221.441 281.89 222.063 296C219.35 274.568 221.35 253.568 228.063 233Z" fill="#5095FE"/>
<path fill-rule="evenodd" clip-rule="evenodd" d="M721.063 273C722.431 276.798 723.431 280.798 724.063 285C721.449 281.569 720.449 277.569 721.063 273Z" fill="#71A6FE"/>
<path fill-rule="evenodd" clip-rule="evenodd" d="M663.063 275C664.487 277.015 665.153 279.348 665.063 282C663.639 279.985 662.973 277.652 663.063 275Z" fill="#99C2FE"/>
<path fill-rule="evenodd" clip-rule="evenodd" d="M724.063 287C725.487 289.015 726.153 291.348 726.063 294C724.639 291.985 723.973 289.652 724.063 287Z" fill="#87B8FE"/>
<path fill-rule="evenodd" clip-rule="evenodd" d="M109.063 289C109.153 291.652 108.487 293.985 107.063 296C106.973 293.348 107.639 291.015 109.063 289Z" fill="#AFCFFE"/>
<path fill-rule="evenodd" clip-rule="evenodd" d="M380.062 308C384.693 308.729 389.359 309.063 394.062 309C392.429 309.661 390.595 309.994 388.562 310C385.412 310.14 382.579 309.473 380.062 308Z" fill="#C7DDFD"/>
<path fill-rule="evenodd" clip-rule="evenodd" d="M553.063 320C553.153 322.652 552.487 324.985 551.063 327C550.973 324.348 551.639 322.015 553.063 320Z" fill="#93BEFE"/>
<path fill-rule="evenodd" clip-rule="evenodd" d="M226.062 326C227.839 329.005 228.839 332.338 229.062 336C227.286 332.995 226.286 329.662 226.062 326Z" fill="#B7D3FE"/>
<path fill-rule="evenodd" clip-rule="evenodd" d="M550.062 331C549.553 336.203 547.886 340.87 545.062 345C546.359 340.107 548.024 335.44 550.062 331Z" fill="#98C1FE"/>
<path fill-rule="evenodd" clip-rule="evenodd" d="M398.062 337C392.083 335.774 386.083 335.774 380.062 337C380.481 336.278 381.146 335.778 382.062 335.5C387.062 334.833 392.062 334.833 397.062 335.5C397.618 335.883 397.951 336.383 398.062 337Z" fill="#BCD5FF"/>
<path fill-rule="evenodd" clip-rule="evenodd" d="M398.062 337C402.652 338.624 405.986 341.624 408.062 346C409.602 350.846 410.269 355.846 410.062 361C407.987 368.91 402.986 374.077 395.062 376.5C383.552 379.071 375.218 375.238 370.062 365C369.895 361.49 369.562 357.99 369.062 354.5C369.171 350.684 370.171 347.184 372.062 344C372.073 342.483 372.74 341.316 374.062 340.5C375.967 339.079 377.967 337.912 380.062 337C386.083 335.774 392.083 335.774 398.062 337Z" fill="#FBFCFE"/>
<path fill-rule="evenodd" clip-rule="evenodd" d="M98.0627 338C98.1527 340.652 97.4867 342.985 96.0627 345C95.9727 342.348 96.6387 340.015 98.0627 338Z" fill="#AFCFFF"/>
<path fill-rule="evenodd" clip-rule="evenodd" d="M372.063 344C370.171 347.184 369.171 350.684 369.063 354.5C369.562 357.99 369.895 361.49 370.063 365C369.295 364.237 368.795 363.237 368.563 362C367.896 357.667 367.896 353.333 368.563 349C368.786 346.619 369.953 344.953 372.063 344Z" fill="#BFD7FE"/>
<path fill-rule="evenodd" clip-rule="evenodd" d="M408.062 346C409.12 347.1 409.955 348.434 410.562 350C411.373 353.858 411.206 357.524 410.062 361C410.269 355.846 409.602 350.846 408.062 346Z" fill="#99C2FE"/>
<path fill-rule="evenodd" clip-rule="evenodd" d="M92.0627 363C92.3917 365.728 91.7257 368.062 90.0627 370C89.9727 367.348 90.6387 365.015 92.0627 363Z" fill="#93BEFE"/>
<path fill-rule="evenodd" clip-rule="evenodd" d="M683.063 363C684.487 365.015 685.153 367.348 685.063 370C683.639 367.985 682.973 365.652 683.063 363Z" fill="#B0CFFE"/>
<path fill-rule="evenodd" clip-rule="evenodd" d="M742.063 365C743.487 367.015 744.153 369.348 744.063 372C742.639 369.985 741.973 367.652 742.063 365Z" fill="#90BCFF"/>
<path fill-rule="evenodd" clip-rule="evenodd" d="M90.0625 371C90.5975 375.812 89.5975 380.145 87.0625 384C87.9025 379.515 88.9025 375.181 90.0625 371Z" fill="#BCD5FE"/>
<path fill-rule="evenodd" clip-rule="evenodd" d="M34.0625 364C34.0596 368.024 33.7263 372.024 33.0625 376C33.0731 378.417 32.0731 380.083 30.0625 381C30.9047 375.103 32.238 369.436 34.0625 364Z" fill="#649DFF"/>
<path fill-rule="evenodd" clip-rule="evenodd" d="M686.062 376C687.839 379.005 688.839 382.338 689.062 386C687.286 382.995 686.286 379.662 686.062 376Z" fill="#A2C6FE"/>
<path fill-rule="evenodd" clip-rule="evenodd" d="M744.062 372C745.758 377.463 747.091 383.129 748.062 389C745.629 383.712 744.296 378.045 744.062 372Z" fill="#8EBAFF"/>
<path fill-rule="evenodd" clip-rule="evenodd" d="M30.0628 382C30.1533 384.652 29.4866 386.985 28.0628 389C27.9723 386.348 28.639 384.015 30.0628 382Z" fill="#9AC2FE"/>
<path fill-rule="evenodd" clip-rule="evenodd" d="M261.062 393C263.806 394.739 265.806 397.073 267.062 400C264.319 398.261 262.319 395.927 261.062 393Z" fill="#B5D1FE"/>
<path fill-rule="evenodd" clip-rule="evenodd" d="M86.0627 390C86.1527 392.652 85.4867 394.985 84.0627 397C83.9727 394.348 84.6387 392.015 86.0627 390Z" fill="#99C2FF"/>
<path fill-rule="evenodd" clip-rule="evenodd" d="M748.063 390C749.487 392.015 750.153 394.348 750.063 397C748.639 394.985 747.973 392.652 748.063 390Z" fill="#9EC5FE"/>
<path fill-rule="evenodd" clip-rule="evenodd" d="M750.063 399C751.487 401.015 752.153 403.348 752.063 406C750.639 403.985 749.973 401.652 750.063 399Z" fill="#90BCFE"/>
<path fill-rule="evenodd" clip-rule="evenodd" d="M81.0627 413C81.1527 415.652 80.4867 417.985 79.0627 420C78.9727 417.348 79.6387 415.015 81.0627 413Z" fill="#B9D4FE"/>
<path fill-rule="evenodd" clip-rule="evenodd" d="M695.063 415C696.487 417.015 697.153 419.348 697.063 422C695.639 419.985 694.973 417.652 695.063 415Z" fill="#AACCFE"/>
<path fill-rule="evenodd" clip-rule="evenodd" d="M78.0627 426C78.1527 428.652 77.4867 430.985 76.0627 433C75.9727 430.348 76.6387 428.015 78.0627 426Z" fill="#B5D2FF"/>
<path fill-rule="evenodd" clip-rule="evenodd" d="M698.063 428C699.487 430.015 700.153 432.348 700.063 435C698.639 432.985 697.973 430.652 698.063 428Z" fill="#AECEFF"/>
<path fill-rule="evenodd" clip-rule="evenodd" d="M451.062 440C447.329 441.911 443.33 443.244 439.062 444C442.648 441.694 446.648 440.361 451.062 440Z" fill="#B7D3FF"/>
<path fill-rule="evenodd" clip-rule="evenodd" d="M335.062 442C337.96 442.629 340.626 443.629 343.062 445C339.846 445.155 337.18 444.155 335.062 442Z" fill="#ACCCFE"/>
<path fill-rule="evenodd" clip-rule="evenodd" d="M700.063 437C701.487 439.015 702.153 441.348 702.063 444C700.639 441.985 699.973 439.652 700.063 437Z" fill="#B6D3FF"/>
<path fill-rule="evenodd" clip-rule="evenodd" d="M352.062 447C354.714 446.91 357.047 447.576 359.062 449C356.411 449.09 354.078 448.424 352.062 447Z" fill="#A9CBFE"/>
<path fill-rule="evenodd" clip-rule="evenodd" d="M703.063 450C704.487 452.015 705.153 454.348 705.063 457C703.639 454.985 702.973 452.652 703.063 450Z" fill="#B8D4FE"/>
<path fill-rule="evenodd" clip-rule="evenodd" d="M68.0627 470C68.1527 472.652 67.4867 474.985 66.0627 477C65.9727 474.348 66.6387 472.015 68.0627 470Z" fill="#9DC4FE"/>
<path fill-rule="evenodd" clip-rule="evenodd" d="M708.063 472C709.487 474.015 710.153 476.348 710.063 479C708.639 476.985 707.973 474.652 708.063 472Z" fill="#B9D3FE"/>
<path fill-rule="evenodd" clip-rule="evenodd" d="M7.0628 482C7.1533 484.652 6.4866 486.985 5.0628 489C4.9723 486.348 5.639 484.015 7.0628 482Z" fill="#B1D0FF"/>
<path fill-rule="evenodd" clip-rule="evenodd" d="M65.0627 484C65.1527 486.652 64.4867 488.985 63.0627 491C62.9727 488.348 63.6387 486.015 65.0627 484Z" fill="#B3D1FE"/>
<path fill-rule="evenodd" clip-rule="evenodd" d="M712.063 489C713.487 491.015 714.153 493.348 714.063 496C712.639 493.985 711.973 491.652 712.063 489Z" fill="#AACBFE"/>
<path fill-rule="evenodd" clip-rule="evenodd" d="M63.0626 492C63.3036 494.398 62.6366 496.398 61.0626 498C60.8216 495.602 61.4886 493.602 63.0626 492Z" fill="#91BDFF"/>
<path fill-rule="evenodd" clip-rule="evenodd" d="M772.063 494C773.487 496.015 774.153 498.348 774.063 501C772.639 498.985 771.973 496.652 772.063 494Z" fill="#8AB8FE"/>
<path fill-rule="evenodd" clip-rule="evenodd" d="M4.0628 497C4.1533 499.652 3.4866 501.985 2.0628 504C1.9723 501.348 2.639 499.015 4.0628 497Z" fill="#7AB0FE"/>
<path fill-rule="evenodd" clip-rule="evenodd" d="M2.0628 504C2.1533 506.652 1.4866 508.985 0.0627999 511C-0.0277001 508.348 0.639 506.015 2.0628 504Z" fill="#AACCFE"/>
<path fill-rule="evenodd" clip-rule="evenodd" d="M60.0625 514C278.023 514.998 496.023 515.331 714.062 515C496.562 516.166 278.896 516.333 61.0625 515.5C60.5065 515.117 60.1735 514.617 60.0625 514Z" fill="#F1F7FE"/>
<path fill-rule="evenodd" clip-rule="evenodd" d="M775.062 505C775.853 506.109 776.353 507.442 776.562 509C777.395 582.501 777.229 655.834 776.062 729C776.062 728 776.062 727 776.062 726C776.384 653.644 776.049 581.311 775.062 509C775.062 507.667 775.062 506.333 775.062 505Z" fill="#7BB0FE"/>
<path fill-rule="evenodd" clip-rule="evenodd" d="M775.062 509C776.049 581.311 776.384 653.644 776.062 726C775.385 654.988 774.719 583.822 774.062 512.5C774.077 511.115 774.41 509.949 775.062 509Z" fill="#1F7CFE"/>
<path fill-rule="evenodd" clip-rule="evenodd" d="M134.563 617.563C157.232 617.396 179.899 617.563 202.563 618.063C206.743 619.065 209.577 621.565 211.063 625.563C211.73 648.23 211.73 670.896 211.063 693.563C209.5 696.791 207 698.958 203.563 700.063C180.23 700.73 156.896 700.73 133.563 700.063C131.063 698.896 129.23 697.063 128.063 694.563C127.396 671.23 127.396 647.896 128.063 624.563C129.757 621.705 131.924 619.372 134.563 617.563Z" fill="#FCFDFE"/>
<path fill-rule="evenodd" clip-rule="evenodd" d="M349.564 699.5C326.276 700.48 302.942 700.813 279.564 700.5C275.888 698.989 273.388 696.323 272.064 692.5C271.397 669.833 271.397 647.167 272.064 624.5C273.627 621.272 276.127 619.105 279.564 618C302.231 617.333 324.897 617.333 347.564 618C350.425 619.832 352.925 621.999 355.064 624.5C355.731 647.5 355.731 670.5 355.064 693.5C353.733 695.996 351.9 697.996 349.564 699.5Z" fill="#FCFDFE"/>
<path fill-rule="evenodd" clip-rule="evenodd" d="M493.565 700.5C470.277 701.48 446.943 701.813 423.565 701.5C419.481 699.908 416.981 696.908 416.065 692.5C415.398 670.5 415.398 648.5 416.065 626.5C417.17 623.063 419.337 620.563 422.565 619C445.232 618.333 467.898 618.333 490.565 619C494.287 620.1 497.121 622.266 499.065 625.5C499.732 648.167 499.732 670.833 499.065 693.5C498.158 696.572 496.325 698.905 493.565 700.5Z" fill="#FCFDFE"/>
<path fill-rule="evenodd" clip-rule="evenodd" d="M637.566 700.5C614.278 701.48 590.944 701.813 567.566 701.5C564.302 700.073 561.802 697.739 560.066 694.5C559.399 671.5 559.399 648.5 560.066 625.5C561.566 622.667 563.733 620.5 566.566 619C589.233 618.333 611.899 618.333 634.566 619C638.017 620.463 640.851 622.629 643.066 625.5C643.733 648.167 643.733 670.833 643.066 693.5C642.159 696.572 640.326 698.905 637.566 700.5Z" fill="#FCFDFE"/>
<path fill-rule="evenodd" clip-rule="evenodd" d="M393.062 693C392.951 693.617 392.618 694.117 392.062 694.5C368.892 695.33 345.892 695.163 323.062 694C346.441 694.313 369.774 693.98 393.062 693Z" fill="#7FB4FE"/>
<path fill-rule="evenodd" clip-rule="evenodd" d="M526.062 693C525.951 693.617 525.618 694.117 525.062 694.5C501.892 695.33 478.892 695.163 456.062 694C479.441 694.313 502.774 693.98 526.062 693Z" fill="#7EB4FE"/>
<path fill-rule="evenodd" clip-rule="evenodd" d="M661.062 693C660.951 693.617 660.618 694.117 660.062 694.5C636.892 695.33 613.892 695.163 591.062 694C614.441 694.313 637.774 693.98 661.062 693Z" fill="#7DB3FE"/>
<path fill-rule="evenodd" clip-rule="evenodd" d="M738.062 778C735.414 779.609 732.414 780.443 729.062 780.5C502.229 781.333 275.562 781.166 49.0625 780C275.396 780.167 501.73 780 728.062 779.5C731.389 778.89 734.724 778.39 738.062 778Z" fill="#AECFFE"/>
</svg>
