<svg width="414" height="414" viewBox="0 0 414 414" fill="none" xmlns="http://www.w3.org/2000/svg">
<circle cx="207" cy="207" r="207" fill="#1F2937"/>
<path fill-rule="evenodd" clip-rule="evenodd" d="M306.222 142.432C336.571 142.256 366.83 142.433 397 142.962C387.694 153.361 378.194 163.602 368.5 173.682C345.981 173.594 323.462 173.682 300.944 173.947C300.292 174.07 299.764 174.335 299.361 174.742C297.705 175.384 296.122 176.179 294.611 177.125C267.131 215.949 239.071 254.349 210.431 292.327C209.655 293.202 208.687 293.731 207.528 293.916C205.816 292.997 204.32 291.761 203.042 290.208C176.757 255.46 151.248 220.149 126.514 184.276C124.315 180.657 121.412 177.743 117.806 175.536C116.433 175.049 115.025 174.696 113.583 174.477C91.0646 174.301 68.5465 174.124 46.0278 173.947C36.1066 163.732 26.4309 153.316 17 142.697C51.8333 142.344 86.6667 142.344 121.5 142.697C130.039 143.277 137.428 146.455 143.667 152.231C146.879 155.248 149.782 158.515 152.375 162.03C170.506 188.542 188.89 214.848 207.528 240.95C226.232 215.375 244.441 189.422 262.153 163.089C272.461 147.017 287.151 140.131 306.222 142.432Z" fill="#ECF2F8"/>
<path d="M137.334 229.297C159.378 254.821 180.929 280.775 201.987 307.157C206.287 310.836 210.333 310.482 214.125 306.098C243.832 269.002 274.356 232.544 305.695 196.723C320.427 195.849 335.204 195.672 350.028 196.193C313.172 238.125 276.315 280.056 239.459 321.988C232.611 330.059 223.902 334.561 213.334 335.494C197.353 337.564 184.071 332.533 173.487 320.399C154.858 298.261 135.946 276.368 116.75 254.721L65.556 196.193C65.556 196.193 107.778 195.928 108.306 196.193C108.834 196.458 112 199.106 113.848 201.225C121.255 209.721 125.765 215.393 131.932 222.84L137.334 229.297Z" fill="#ECF2F8"/>
</svg>
