<svg width="414" height="414" viewBox="0 0 414 414" fill="none" xmlns="http://www.w3.org/2000/svg">
<circle cx="207" cy="207" r="207" fill="#1F2937"/>
<path fill-rule="evenodd" clip-rule="evenodd" d="M294.494 145.381C321.409 145.226 348.244 145.382 375 145.849C366.747 155.022 358.322 164.054 349.725 172.946C329.754 172.868 309.783 172.946 289.814 173.18C289.235 173.288 288.767 173.522 288.41 173.88C286.941 174.447 285.537 175.148 284.197 175.983C259.827 210.228 234.942 244.1 209.542 277.598C208.854 278.37 207.996 278.837 206.968 279C205.45 278.189 204.124 277.099 202.99 275.73C179.679 245.079 157.057 213.932 135.122 182.29C133.171 179.098 130.597 176.528 127.399 174.581C126.181 174.151 124.933 173.84 123.654 173.647C103.684 173.491 83.7136 173.335 63.7431 173.18C54.9445 164.169 46.3637 154.981 38 145.615C68.8917 145.303 99.7833 145.303 130.675 145.615C138.248 146.126 144.801 148.93 150.333 154.025C153.182 156.686 155.757 159.567 158.056 162.668C174.136 186.053 190.44 209.257 206.968 232.28C223.556 209.722 239.704 186.829 255.412 163.602C264.554 149.425 277.581 143.352 294.494 145.381Z" fill="#ECF2F8"/>
<path fill-rule="evenodd" clip-rule="evenodd" d="M144.626 222.619C144.379 223.253 144.301 223.88 144.392 224.5C144.548 224.344 144.705 224.186 144.86 224.03C146.108 225.597 147.355 227.164 148.603 228.731C148.892 229.178 148.814 229.569 148.369 229.907C149.484 231.492 150.498 233.138 151.41 234.843C152.139 235.241 152.607 234.927 152.814 233.903C153.699 234.428 154.088 235.212 153.983 236.254C152.478 236.325 152.322 236.716 153.515 237.429C152.449 237.529 151.513 237.92 150.708 238.605C149.906 238.083 149.594 238.397 149.773 239.545C150.701 239.6 151.48 239.286 152.112 238.605C152.48 238.953 152.792 239.345 153.048 239.78C152.134 240.755 151.277 241.774 150.474 242.836C150.243 242.068 150.166 241.284 150.24 240.485C149.356 240.581 148.654 240.267 148.135 239.545C148.084 240.649 147.538 241.354 146.498 241.66C147.68 241.902 148.694 242.45 149.539 243.306C149.615 244.193 149.225 244.898 148.369 245.422C147.838 245.774 147.37 245.696 146.966 245.187C147.622 243.729 147.154 243.18 145.562 243.541C145.822 244.593 146.29 245.533 146.966 246.362C145.847 246.687 145.847 247.157 146.966 247.772C144.712 247.806 144.322 248.511 145.796 249.888C146.73 249.655 147.51 249.185 148.135 248.478C148.698 249.117 149.4 249.587 150.24 249.888C149.353 250.342 148.418 250.499 147.433 250.358C147.536 250.911 147.38 251.381 146.966 251.769C146.334 251.087 145.555 250.773 144.626 250.828C144.737 251.991 145.36 252.775 146.498 253.179C145.673 253.088 144.815 253.088 143.925 253.179C143.78 252.584 143.546 252.035 143.223 251.534C143.614 251.058 143.77 250.51 143.691 249.888C142.515 250.007 141.423 250.399 140.416 251.063C142.184 251.585 142.262 252.291 140.65 253.179C140.284 251.915 139.582 251.445 138.544 251.769C139.468 252.356 139.625 253.061 139.012 253.884C139.538 254.001 140.006 254.236 140.416 254.59C139.847 254.87 139.223 254.948 138.544 254.825C138.343 255.257 138.187 255.649 138.077 256C137.777 253.855 137.232 253.698 136.439 255.53C134.173 252.907 131.99 250.244 129.889 247.537C129.007 246.248 127.837 245.464 126.381 245.187C111.191 227.96 96.064 210.643 81 193.235C93.6317 192.922 106.263 192.922 118.895 193.235C120.829 194.707 122.622 196.353 124.275 198.172C131.158 206.261 137.941 214.411 144.626 222.619Z" fill="#ECF2F8"/>
<path fill-rule="evenodd" clip-rule="evenodd" d="M126 245.08C127.465 245.357 128.642 246.139 129.529 247.425C131.642 250.124 133.839 252.782 136.118 255.398C136.915 253.57 137.464 253.727 137.765 255.867C137.876 255.516 138.033 255.126 138.235 254.694C138.918 254.817 139.545 254.739 140.118 254.46C139.705 254.107 139.235 253.873 138.706 253.756C139.322 252.935 139.165 252.232 138.235 251.646C139.279 251.323 139.985 251.792 140.353 253.053C141.975 252.166 141.896 251.463 140.118 250.942C141.13 250.28 142.229 249.889 143.412 249.77C143.492 250.39 143.335 250.937 142.941 251.411C143.266 251.912 143.502 252.459 143.647 253.053C144.543 252.962 145.406 252.962 146.235 253.053C145.091 252.649 144.464 251.868 144.353 250.708C145.287 250.653 146.071 250.966 146.706 251.646C147.123 251.259 147.28 250.79 147.176 250.239C148.167 250.379 149.108 250.223 150 249.77C149.155 249.469 148.449 249 147.882 248.363C147.253 249.068 146.469 249.537 145.529 249.77C144.047 248.396 144.439 247.693 146.706 247.659C145.581 247.046 145.581 246.577 146.706 246.253C146.026 245.426 145.556 244.488 145.294 243.439C146.896 243.079 147.366 243.626 146.706 245.08C147.113 245.588 147.584 245.666 148.118 245.315C148.978 244.793 149.371 244.089 149.294 243.204C148.445 242.351 147.425 241.804 146.235 241.563C147.281 241.257 147.831 240.554 147.882 239.452C148.405 240.173 149.111 240.486 150 240.39C149.925 241.187 150.003 241.969 150.235 242.735C151.042 241.676 151.905 240.66 152.824 239.687C152.566 239.253 152.253 238.862 151.882 238.514C151.247 239.194 150.463 239.507 149.529 239.452C149.35 238.307 149.664 237.994 150.471 238.514C151.28 237.832 152.221 237.441 153.294 237.342C152.094 236.631 152.25 236.24 153.765 236.17C153.871 235.13 153.479 234.349 152.588 233.825C152.38 234.847 151.91 235.159 151.176 234.763C150.259 233.061 149.239 231.42 148.118 229.838C148.565 229.502 148.643 229.111 148.353 228.666C147.098 227.103 145.843 225.539 144.588 223.976C144.432 224.132 144.274 224.289 144.118 224.445C144.026 223.827 144.104 223.201 144.353 222.569C164.008 245.169 183.224 268.149 202 291.509C205.834 294.766 209.442 294.453 212.824 290.571C239.312 257.725 266.528 225.444 294.471 193.727C307.606 192.954 320.783 192.797 334 193.258C301.137 230.386 268.274 267.513 235.412 304.64C229.306 311.787 221.541 315.773 212.118 316.599C197.869 318.432 186.025 313.977 176.588 303.233C159.978 283.632 143.116 264.248 126 245.08Z" fill="#ECF2F8"/>
</svg>
