<svg width="24" height="24" viewBox="0 0 24 24" fill="none" xmlns="http://www.w3.org/2000/svg">
<path d="M0 20.3805V3.61943C0 3.1606 0.197531 2.77571 0.592592 2.46478C0.987654 2.15385 1.44856 1.99893 1.97531 2.00001C2.13992 2.00001 2.31308 2.01998 2.49481 2.05992C2.67654 2.09987 2.84905 2.16087 3.01234 2.24292L19.1111 10.6235C19.4074 10.7854 19.6299 10.9878 19.7787 11.2308C19.9276 11.4737 20.0013 11.7301 20 12C19.9987 12.2699 19.9249 12.5263 19.7787 12.7692C19.6326 13.0121 19.41 13.2146 19.1111 13.3765L3.01234 21.757C2.84773 21.838 2.67522 21.899 2.49481 21.94C2.3144 21.9811 2.14123 22.001 1.97531 22C1.44856 22 0.987654 21.8445 0.592592 21.5336C0.197531 21.2226 0 20.8383 0 20.3805Z" fill="white"/>
</svg>
